<svg width="274" height="254" viewBox="0 0 274 254" fill="none" xmlns="http://www.w3.org/2000/svg">
<g opacity="0.5">
<path d="M255.721 127C255.721 146.809 242.535 164.825 221.042 177.915C199.558 190.999 169.846 199.108 137 199.108C104.154 199.108 74.4423 190.999 52.958 177.915C31.4649 164.825 18.2788 146.809 18.2788 127C18.2788 107.191 31.4649 89.1749 52.958 76.0851C74.4423 63.0007 104.154 54.8916 137 54.8916C169.846 54.8916 199.558 63.0007 221.042 76.0851C242.535 89.1749 255.721 107.191 255.721 127Z" stroke="#532053"/>
<path d="M239.824 63.1443C249.026 80.2881 245.987 102.976 233.455 125.878C220.929 148.767 198.964 171.773 170.515 189.44C142.066 207.107 112.561 216.066 87.8692 216.289C63.1646 216.512 43.3781 207.999 34.1761 190.855C24.9742 173.712 28.0132 151.023 40.5454 128.122C53.0708 105.233 75.0359 82.2272 103.485 64.5598C131.934 46.8923 161.439 37.934 186.131 37.7108C210.835 37.4874 230.622 46.0006 239.824 63.1443Z" stroke="#532053"/>
</g>
</svg>
