<svg width="1936" height="98" viewBox="0 0 1936 98" fill="none" xmlns="http://www.w3.org/2000/svg">
<path d="M1936 1C1291.47 1 646.931 1 2.39647 1" stroke="url(#paint0_linear_2_2)" stroke-width="0.3" stroke-miterlimit="10"/>
<path d="M1936 3.69265C1609.62 3.67274 1283.41 4.1541 957.113 4.69879C815.933 4.93585 673.786 4.85804 532.62 4.35858C355.91 3.73427 179.12 4.32239 2.44989 3.69265" stroke="url(#paint1_linear_2_2)" stroke-width="0.3" stroke-miterlimit="10"/>
<path d="M1936 6.34565C1843.52 6.34565 1751.02 6.24973 1658.55 6.29678C1575.92 6.3384 1493.47 7.2414 1410.87 7.39703C1256.98 7.68657 1103.13 7.34998 949.258 7.692C812.684 7.99601 674.7 8.80129 538.22 7.57256C458.673 6.84872 379.946 6.51937 300.333 6.22078C200.967 5.848 101.722 6.85958 2.39647 6.34565" stroke="url(#paint2_linear_2_2)" stroke-width="0.3" stroke-miterlimit="10"/>
<path d="M1936 8.96228C1844.85 8.96228 1753.46 8.75598 1662.34 8.97857C1576.71 9.18848 1491.58 10.6597 1406.02 11.0379C1251.84 11.7201 1098.87 9.77118 944.854 10.1186C809.327 10.419 675.72 12.8584 540.046 10.676C460.741 9.40021 383.894 8.4013 304.012 8.10995C203.303 7.74803 103.092 9.50878 2.39647 8.96228" stroke="url(#paint3_linear_2_2)" stroke-width="0.3" stroke-miterlimit="10"/>
<path d="M1936 11.5283C1846.5 11.5283 1756.35 11.199 1666.92 11.6532C1577.49 12.1074 1489.34 14.1975 1400.18 14.8725C1319.13 15.486 1239.22 15.3213 1158.6 13.9858C1086.34 12.7878 1016.16 11.9228 943.309 12.0531C879.46 12.1689 819.639 13.4755 756.582 14.6933C684.421 16.0886 610.125 15.4371 538.636 13.6601C459.949 11.702 385.733 9.8291 305.381 9.61556C204.028 9.34412 103.817 11.997 2.39647 11.5283" stroke="url(#paint4_linear_2_2)" stroke-width="0.3" stroke-miterlimit="10"/>
<path d="M1936 14.0582C1848.44 14.0582 1759.55 13.6148 1672.13 14.3242C1578.73 15.0806 1486.91 17.8204 1393.7 18.8482C1313.68 19.7422 1233.12 19.1294 1154.35 17.0278C1084.03 15.1783 1016.05 13.5262 944.169 13.6022C877.607 13.6727 817.384 15.9438 752.769 17.7806C679.426 19.8652 606.849 19.0744 534.621 16.5464C457.21 13.832 385.747 10.9076 304.844 10.8298C203.317 10.7303 104.099 14.3622 2.39647 14.0564" stroke="url(#paint5_linear_2_2)" stroke-width="0.3" stroke-miterlimit="10"/>
<path d="M1936 16.5482C1850.51 16.5591 1762.92 16.0053 1677.72 16.9735C1579.91 18.0755 1484.36 21.4758 1386.91 22.8963C1305.13 24.0871 1229.56 22.9796 1150.69 19.9883C1083.16 17.4259 1017.75 14.8598 946.921 14.8544C876.882 14.8544 814.577 18.2655 748.109 20.7556C672.39 23.5912 602.565 22.766 528.578 19.3404C453.275 15.8551 384.135 11.7401 302.79 11.8306C201.41 11.9536 104.058 16.6315 2.39647 16.5482" stroke="url(#paint6_linear_2_2)" stroke-width="0.3" stroke-miterlimit="10"/>
<path d="M1936 18.9985C1852.67 19.0147 1766.39 18.3995 1683.56 19.5902C1581.26 21.0596 1482.14 25.1168 1380.21 26.9481C1297.29 28.4374 1225.32 26.8449 1147.72 22.8602C1083.7 19.5721 1020.81 16.009 951.138 15.8968C877.5 15.7774 811.113 20.4624 743.007 23.6166C664.36 27.2593 597.208 26.4848 521.206 22.0458C448.83 17.8186 381.342 12.3916 299.648 12.6956C198.63 13.072 103.843 18.8247 2.42318 18.9985" stroke="url(#paint7_linear_2_2)" stroke-width="0.3" stroke-miterlimit="10"/>
<path d="M1936 21.4088C1854.8 21.4305 1769.87 20.7754 1689.28 22.1634C1582.61 24.0001 1479.9 28.6943 1373.72 30.9346C1289.13 32.7207 1221.24 30.6758 1145.28 25.6415C1085.2 21.6603 1024.86 17.0621 956.146 16.8196C878.91 16.55 807.192 22.6357 737.515 26.3762C701.018 28.3251 662.547 30.151 622.761 29.7312C583.82 29.3186 546.947 27.1091 512.894 24.6643C444.252 19.7475 377.381 12.9796 295.7 13.4971C195.125 14.1359 103.507 20.96 2.38268 21.4033" stroke="url(#paint8_linear_2_2)" stroke-width="0.3" stroke-miterlimit="10"/>
<path d="M1935.93 23.7776C1856.71 23.8047 1773.16 23.1334 1694.77 24.6824C1584.03 26.8648 1478.11 32.1652 1368 34.7927C1281.48 36.8593 1217.51 34.4 1143.6 28.3288C1087.57 23.7251 1029.74 18.099 961.653 17.7172C881.086 17.2666 803.204 24.7837 732.198 29.0381C695.003 31.2676 653.981 33.6183 612.436 33.1007C573.495 32.6158 537.012 29.9665 504.449 27.2195C439.526 21.74 373.34 13.6058 291.458 14.3314C191.313 15.2218 103.227 23.0827 2.37033 23.7776" stroke="url(#paint9_linear_2_2)" stroke-width="0.3" stroke-miterlimit="10"/>
<path d="M1935.92 26.1047C1858.59 26.1373 1776.28 25.4659 1699.89 27.1289C1585.53 29.6208 1476.77 35.4803 1363.25 38.4589C1320.03 39.5917 1279.06 40.2468 1236.72 38.2599C1202.22 36.6403 1171.88 33.7973 1142.6 30.9237C1090.24 25.7862 1034.95 19.1974 967.023 18.6816C883.502 18.0465 799.363 26.9262 727.202 31.615C689.363 34.0742 645.816 36.9226 602.686 36.32C563.571 35.7771 527.571 32.7242 496.405 29.7094C434.933 23.7667 369.539 14.3603 287.214 15.2705C187.432 16.3762 102.997 25.2107 2.31578 26.1137" stroke="url(#paint10_linear_2_2)" stroke-width="0.3" stroke-miterlimit="10"/>
<path d="M1935.91 28.3939C1860.2 28.4283 1779 27.7606 1704.37 29.4996C1587.12 32.2321 1476.29 38.5947 1359.91 41.8538C1316.54 43.0681 1275.69 43.8209 1233.56 41.5661C1199.39 39.7257 1170.27 36.5679 1142.42 33.412C1093.12 27.8329 1040.15 20.4171 971.884 19.7928C928.257 19.3929 884.388 22.4602 846.71 25.057C804.909 27.9379 764.72 31.2205 722.932 34.1051C684.529 36.7543 638.874 40.0044 594.294 39.3258C554.897 38.7268 519.461 35.3627 489.409 32.1235C430.757 25.7899 366.599 15.3195 283.481 16.3799C183.873 17.6466 102.971 27.3606 2.30247 28.4012" stroke="url(#paint11_linear_2_2)" stroke-width="0.3" stroke-miterlimit="10"/>
<path d="M1935.89 30.6414C1861.54 30.6758 1781.2 30.0062 1708.01 31.7779C1588.69 34.6642 1476.57 41.4611 1358.24 44.9229C1315.07 46.1896 1273.92 46.9985 1232.22 44.5827C1198.09 42.6048 1169.84 39.1756 1142.99 35.8024C1095.76 29.8687 1044.78 21.8376 975.684 21.1446C930.862 20.6994 885.718 24.0218 847.449 26.7688C804.251 29.8723 762.853 33.4047 719.656 36.5118C680.715 39.3149 633.718 42.8201 587.943 42.1053C548.129 41.4828 513.297 37.9088 484.065 34.4832C427.225 27.8257 365.028 16.6042 280.58 17.7353C180.973 19.0689 103.159 29.5629 2.28917 30.6342" stroke="url(#paint12_linear_2_2)" stroke-width="0.3" stroke-miterlimit="10"/>
<path d="M1935.87 32.8491C1862.56 32.8781 1782.72 32.1959 1710.6 33.953C1590.27 36.8846 1477.84 44.038 1358.6 47.5939C1316.03 48.8606 1274.1 49.6858 1233 47.2537C1198.59 45.2178 1170.72 41.604 1144.38 38.088C1097.89 31.8738 1048.42 23.5206 977.873 22.8474C932.057 22.4095 886.792 25.7663 847.986 28.6382C803.875 31.8955 761.712 35.6088 717.615 38.8697C678.178 41.7868 630.979 45.3481 584.264 44.6388C543.98 44.0271 509.739 40.388 480.87 36.8158C424.473 29.8397 365.243 18.3342 278.821 19.4544C178.959 20.7482 103.495 31.8882 2.20872 32.8455" stroke="url(#paint13_linear_2_2)" stroke-width="0.3" stroke-miterlimit="10"/>
<path d="M1935.85 35.0208C1862.82 35.0823 1783.23 34.315 1711.42 36.1065C1591.91 39.0942 1480.92 46.4611 1362.62 50.1003C1320.16 51.405 1278.27 52.1868 1237.19 49.7836C1202.28 47.7369 1173.87 44.0797 1147.13 40.5202C1099.78 34.2155 1049.79 25.7556 978.316 24.9666C932.178 24.4581 887.181 27.7733 848.201 30.6904C804.023 33.9983 761.94 37.7841 717.776 41.0938C678.151 44.0652 631.194 47.5777 584.129 46.8176C543.577 46.1626 509.538 42.5162 480.614 38.9042C423.989 31.8304 365.887 20.4769 278.781 21.5319C178.637 22.7407 103.951 34.1847 2.249 35.0208" stroke="url(#paint14_linear_2_2)" stroke-width="0.3" stroke-miterlimit="10"/>
<path d="M1935.84 37.1434C1862.5 37.2556 1783.15 36.2875 1711.08 38.2039C1593.7 41.3255 1485.2 48.8136 1369.06 52.5813C1326.1 53.9765 1285.3 54.7021 1243.64 52.2827C1208.09 50.2215 1178.67 46.6023 1150.96 43.0735C1102.04 36.8376 1049.94 28.2926 978.463 27.2159C932.608 26.5246 887.45 29.8489 848.805 32.7642C805.164 36.0559 763.713 39.8452 720.086 43.1405C680.541 46.1282 633.584 49.6135 586.586 48.7105C546.155 47.9342 511.619 44.2353 482.293 40.6631C425.372 33.7323 365.592 22.5923 279.533 23.6166C179.147 24.8127 104.219 36.3219 2.27561 37.1434" stroke="url(#paint15_linear_2_2)" stroke-width="0.3" stroke-miterlimit="10"/>
<path d="M1935.81 39.2299C1862.05 39.3638 1782.92 38.126 1710.41 40.1546C1595.42 43.3721 1489.75 50.958 1376.06 54.8125C1332.73 56.2855 1292.89 56.9424 1250.75 54.5537C1214.66 52.507 1184.06 48.9819 1155.31 45.4803C1104.75 39.3276 1050.25 30.8134 978.839 29.4761C933.4 28.6238 888.591 31.8793 850.295 34.7819C807.393 38.0392 766.814 41.805 723.939 45.0605C684.515 48.0536 638.001 51.4394 591.219 50.4079C550.748 49.5139 515.594 45.7988 485.609 42.2646C427.937 35.4786 366.196 24.6173 280.795 25.627C179.966 26.8178 104.622 38.4011 2.23519 39.2191" stroke="url(#paint16_linear_2_2)" stroke-width="0.3" stroke-miterlimit="10"/>
<path d="M1935.79 41.2766C1861.52 41.405 1782.43 39.8397 1709.41 41.9714C1597.04 45.2487 1494.45 52.9124 1383.43 56.8338C1339.93 58.3702 1300.84 58.9474 1258.35 56.6275C1221.61 54.6224 1189.87 51.1987 1160.01 47.7604C1107.34 41.7181 1050.93 33.3269 979.323 31.7435C934.42 30.7518 890.404 33.8662 852.484 36.7489C810.522 39.9411 770.977 43.6743 729.042 46.8701C689.765 49.865 644.151 53.0825 597.651 51.937C556.991 50.9326 521.112 47.232 490.228 43.7467C431.401 37.1108 367.458 26.5825 282.514 27.5868C181.067 28.7866 105.146 40.4477 2.14117 41.2711" stroke="url(#paint17_linear_2_2)" stroke-width="0.3" stroke-miterlimit="10"/>
<path d="M1935.77 43.2834C1860.9 43.3848 1781.84 41.443 1708.16 43.6671C1598.61 46.9732 1499.29 54.7057 1391.13 58.6488C1347.65 60.2377 1309.1 60.7317 1266.4 58.5131C1229 56.5696 1196.14 53.2652 1165.06 49.9319C1110 44.0272 1051.87 35.8369 979.994 34.0254C893.251 31.8376 805.594 43.2237 735.299 48.591C696.171 51.5805 651.792 54.5754 605.694 53.3213C564.712 52.2048 528.081 48.5403 496.137 45.1075C435.819 38.6273 369.486 28.4753 284.756 29.4851C182.557 30.7012 105.911 42.4474 2.16819 43.2834" stroke="url(#paint18_linear_2_2)" stroke-width="0.3" stroke-miterlimit="10"/>
<path d="M1935.74 45.2487C1860.21 45.3048 1781.14 42.9468 1706.69 45.2487C1600.09 48.5567 1504.19 56.3253 1399.04 60.2811C1355.7 61.9098 1317.53 62.3151 1274.71 60.225C1236.63 58.3629 1202.63 55.2052 1170.32 51.9768C1112.88 46.2403 1053.01 38.3233 980.773 36.2875C895.345 33.8843 811.462 44.941 742.47 50.2215C704.321 53.1368 659.849 56.0756 615.013 54.5736C573.387 53.1802 536.716 49.8017 502.958 46.3634C440.908 40.0478 372.024 30.3067 287.294 31.3273C184.222 32.5669 106.757 44.4018 2.14134 45.2613" stroke="url(#paint19_linear_2_2)" stroke-width="0.3" stroke-miterlimit="10"/>
<path d="M1935.72 47.1759C1859.47 47.1759 1780.32 44.3656 1705.04 46.7525C1601.47 50.0369 1509.09 57.8382 1407.04 61.7723C1229.79 68.6108 1137.33 43.3649 981.632 38.5332C897.708 35.9256 818.068 46.5842 750.325 51.7579C712.351 54.6533 669.597 57.2899 625.325 55.7028C583.176 54.1918 545.645 50.8875 510.531 47.5143C446.548 41.3617 374.991 32.0639 290.087 33.1008C186.062 34.3675 107.684 46.2947 2.1007 47.1759" stroke="url(#paint20_linear_2_2)" stroke-width="0.3" stroke-miterlimit="10"/>
<path d="M1935.69 49.0616C1858.71 48.9855 1779.42 45.7138 1703.24 48.1712C1602.76 51.4122 1513.91 59.2316 1415.04 63.1313C1241.46 69.9753 1135.74 45.94 982.559 40.7627C900.085 37.9722 825.225 48.1586 758.717 53.2327C720.905 56.1172 680.017 58.4064 636.377 56.747C593.663 55.1183 555.179 51.8972 518.655 48.5947C452.617 42.623 378.335 33.7721 293.068 34.8326C188.022 36.1373 108.664 48.1513 2.06075 49.0616" stroke="url(#paint21_linear_2_2)" stroke-width="0.3" stroke-miterlimit="10"/>
<path d="M1935.66 50.9073C1857.92 50.7535 1778.47 47.004 1701.34 49.523C1603.93 52.7043 1518.72 60.5327 1422.91 64.3799C1253.01 71.204 1134.21 48.4825 983.512 42.9595C902.516 39.9918 832.745 49.6768 767.405 54.6514C729.727 57.5197 690.866 59.4415 647.898 57.7278C604.593 55.9924 565.115 52.8418 527.141 49.6207C458.982 43.8299 381.96 35.4406 296.264 36.5245C190.184 37.8691 109.778 49.9736 2.11419 50.9146" stroke="url(#paint22_linear_2_2)" stroke-width="0.3" stroke-miterlimit="10"/>
<path d="M1935.64 52.7133C1857.14 52.4798 1777.46 48.2508 1699.31 50.8222C1604.91 53.9311 1523.22 61.7631 1430.5 65.5452C1264.21 72.3295 1132.71 50.9724 984.479 45.1183C904.946 41.9768 840.412 51.1461 776.187 56.0249C738.67 58.875 701.703 60.4186 659.446 58.6434C615.537 56.7976 575.025 53.7266 535.628 50.5852C465.334 44.9754 385.599 37.0492 299.366 38.1604C192.172 39.5429 110.772 51.7325 2.03404 52.7133" stroke="url(#paint23_linear_2_2)" stroke-width="0.3" stroke-miterlimit="10"/>
<path d="M1935.61 54.4777C1856.39 54.1664 1776.44 49.4687 1697.39 52.0836C1605.89 55.1111 1527.65 62.9413 1437.88 66.6492C1274.88 73.3809 1131.19 53.4136 985.365 47.232C907.283 43.9204 847.999 52.574 784.821 57.3658C747.465 60.1979 712.311 61.3633 670.859 59.5374C626.346 57.5794 584.814 54.579 544.007 51.5244C471.645 46.1064 389.252 38.6273 302.427 39.7619C194.159 41.1825 111.753 53.4715 1.95358 54.4741" stroke="url(#paint24_linear_2_2)" stroke-width="0.3" stroke-miterlimit="10"/>
<path d="M1935.58 56.2041C1855.57 55.8186 1775.43 50.6703 1695.41 53.3213C1606.67 56.262 1531.73 64.0867 1444.76 67.715C1284.89 74.3852 1129.7 55.8041 986.319 49.295C909.538 45.8096 855.559 53.9837 793.254 58.6796C756.018 61.4845 722.704 62.2988 681.951 60.4205C636.86 58.3503 594.321 55.4096 552.184 52.4437C477.835 47.2121 392.904 40.1727 305.475 41.3363C196.186 42.793 112.813 55.1708 2.00692 56.2041" stroke="url(#paint25_linear_2_2)" stroke-width="0.3" stroke-miterlimit="10"/>
<path d="M1935.56 57.8889C1854.79 57.4401 1774.42 51.8683 1693.51 54.5465C1607.3 57.3985 1535.46 65.2233 1451.09 68.7665C1369.25 72.2047 1282.19 68.3231 1205.74 64.1755C1132.02 60.1744 1061.94 54.9266 987.124 51.2983C911.311 47.6211 862.957 55.4097 801.122 59.9844C719.011 66.0557 634.913 58.3558 559.757 53.363C483.608 48.3106 396.287 41.691 308.282 42.88C198.026 44.3675 113.74 56.8321 1.95311 57.8907" stroke="url(#paint26_linear_2_2)" stroke-width="0.3" stroke-miterlimit="10"/>
<path d="M1935.53 59.5355C1854.01 59.0343 1773.63 53.077 1691.68 55.7751C1607.77 58.5402 1538.79 66.3596 1456.69 69.825C1375.6 73.2524 1286.24 69.53 1209.43 65.7316C1134.23 62.0111 1062.64 57.098 987.836 53.2326C913.03 49.3673 869.336 56.7741 808.293 61.2836C728.048 67.2101 640.445 58.9311 566.592 54.2894C488.845 49.4035 399.309 43.1857 310.819 44.3909C199.704 45.9055 114.585 58.4534 1.97992 59.5355" stroke="url(#paint27_linear_2_2)" stroke-width="0.3" stroke-miterlimit="10"/>
<path d="M1935.5 61.1407C1853.22 60.5978 1772.91 54.3076 1690 57.022C1608.09 59.702 1541.65 67.5177 1461.73 70.9162C1381.26 74.3273 1289.85 70.7569 1212.7 67.2734C1136.16 63.8153 1063.14 59.1971 988.454 55.0947C953.219 53.1603 927.397 53.0806 893.331 55.5761C865.643 57.6047 842.225 60.5507 814.577 62.5938C777.691 65.3227 748.311 65.2467 709.679 63.2181C663.259 60.7769 618.034 57.9702 572.487 55.2431C493.438 50.5237 401.954 44.6677 313.062 45.8838C201.181 47.4147 115.351 60.0458 1.93979 61.1407" stroke="url(#paint28_linear_2_2)" stroke-width="0.3" stroke-miterlimit="10"/>
<path d="M1935.48 62.7079C1852.43 62.165 1772.36 55.5744 1688.49 58.2978C1608.2 60.9055 1544.03 68.7502 1465.72 72.0618C1385.66 75.4475 1292.58 72.0256 1215.12 68.8045C1137.65 65.5833 1063.27 61.2041 988.83 56.861C954.428 54.8541 929.277 54.57 895.506 57.0528C868.731 59.0217 846.388 61.9279 819.68 63.9113C782.995 66.6365 754.071 66.347 716.111 64.2515C669.463 61.6764 623.54 58.8751 577.133 56.224C497.09 51.6529 403.821 46.1228 314.794 47.3424C202.296 48.8824 115.888 61.5895 1.92633 62.6916" stroke="url(#paint29_linear_2_2)" stroke-width="0.3" stroke-miterlimit="10"/>
<path d="M1935.45 64.2315C1851.62 63.7031 1772.01 56.8845 1687.2 59.6152C1608.11 62.165 1545.94 70.0694 1468.71 73.2832C1388.76 76.6147 1294.67 73.3484 1216.73 70.3571C1138.15 67.3441 1063.13 63.1476 988.991 58.5656C955.287 56.4846 930.419 56.0467 896.903 58.5295C870.853 60.4567 849.409 63.3448 823.439 65.2902C786.929 68.0245 758.033 67.5811 720.65 65.406C673.934 62.6916 627.474 59.883 580.356 57.2881C499.789 52.8491 404.962 47.6048 316.003 48.8154C203.062 50.3536 116.237 63.1331 1.79233 64.2315" stroke="url(#paint30_linear_2_2)" stroke-width="0.3" stroke-miterlimit="10"/>
<path d="M1935.42 65.7172C1850.83 65.2377 1771.9 58.2544 1686.15 60.9923C1607.88 63.4914 1547.05 71.4302 1470.75 74.606C1391.06 77.9213 1295.74 74.7255 1217.59 71.9206C1138.2 69.0704 1062.84 64.9879 989.058 60.1581C955.905 57.9865 930.902 57.4618 897.561 59.9608C872.048 61.8736 851.275 64.7636 825.803 66.6944C789.427 69.4523 760.127 68.9311 723.187 66.6564C676.566 63.7864 629.757 60.9579 582.115 58.4064C501.306 54.0796 405.378 49.0706 316.782 50.2631C203.572 51.785 116.533 64.6333 1.81907 65.7172" stroke="url(#paint31_linear_2_2)" stroke-width="0.3" stroke-miterlimit="10"/>
<path d="M1935.38 67.1649C1850.36 66.7343 1771.98 59.6749 1685.71 62.4382C1607.7 64.9355 1547.24 72.867 1471.18 76.0248C1391.57 79.3292 1295.82 76.0682 1217.64 73.3231C1137.97 70.5254 1062.86 66.4737 988.977 61.6221C955.945 59.4506 930.593 58.9982 897.48 61.4809C872.142 63.381 851.503 66.2457 826.165 68.1512C789.91 70.8765 760.074 70.3698 723.483 68.0299C677.063 65.0622 630.2 62.212 582.357 59.6858C501.937 55.4386 404.76 50.4857 316.849 51.7235C203.8 53.3123 116.197 65.9435 1.77867 67.1595" stroke="url(#paint32_linear_2_2)" stroke-width="0.3" stroke-miterlimit="10"/>
<path d="M1935.36 68.5891C1850.14 68.1801 1771.99 61.0737 1685.52 63.8696C1607.64 66.3886 1546.86 74.2531 1470.75 77.391C1391.14 80.6737 1295.6 77.2698 1217.55 74.5065C1138.13 71.6944 1063.34 67.6499 988.95 63.0281C918.535 58.6543 883.636 65.3806 825.641 69.5753C789.386 72.1974 759.362 71.7197 723.107 69.3708C676.888 66.3759 630.106 63.533 582.276 61.0357C502.327 56.8628 403.887 51.8863 316.607 53.2291C204.041 54.9627 115.364 67.0798 1.71127 68.5619" stroke="url(#paint33_linear_2_2)" stroke-width="0.3" stroke-miterlimit="10"/>
<path d="M1935.33 69.9915C1849.86 69.597 1771.9 62.4382 1685.16 65.2576C1607.27 67.791 1546.26 75.5724 1470.11 78.6813C1390.5 81.9386 1295.24 78.4044 1217.3 75.6321C1138.2 72.8181 1063.69 68.7918 988.87 64.4034C919.046 60.3065 882.898 66.9134 824.863 70.9181C788.608 73.4262 758.315 72.9629 722.382 70.6104C676.378 67.5992 629.73 64.778 581.914 62.3242C502.287 58.2363 402.867 53.3123 316.312 54.7455C204.31 56.5986 114.546 68.1892 1.7252 69.9065" stroke="url(#paint34_linear_2_2)" stroke-width="0.3" stroke-miterlimit="10"/>
<path d="M1935.3 71.3686C1849.54 70.985 1771.7 63.7682 1684.63 66.6003C1606.84 69.1301 1545.47 76.8228 1469.26 79.8991C1389.65 83.1021 1294.7 79.4793 1216.91 76.7052C1138.19 73.9003 1063.84 69.9046 988.749 65.7588C919.421 61.9351 882.038 68.3954 823.856 72.2137C787.506 74.597 756.985 74.1337 721.321 71.783C675.572 68.7664 629.018 65.9778 581.282 63.5818C501.857 59.5916 401.833 54.7889 315.868 56.2963C204.417 58.2489 113.619 69.2948 1.65756 71.2238" stroke="url(#paint35_linear_2_2)" stroke-width="0.3" stroke-miterlimit="10"/>
<path d="M1935.28 72.7222C1849.15 72.3421 1771.46 65.0693 1683.95 67.9032C1606.23 70.4185 1544.47 78.0243 1468.2 81.0391C1388.62 84.1861 1294.15 80.4818 1216.39 77.7167C1138.09 74.9299 1063.97 70.9759 988.575 67.0798C919.771 63.5239 881.072 69.8141 822.62 73.4261C786.151 75.6809 755.387 75.2013 719.951 72.8579C674.561 69.8259 627.983 67.1281 580.423 64.7761C501.065 60.8963 400.759 56.271 315.291 57.8471C204.566 59.8793 112.652 70.3678 1.67149 72.4797" stroke="url(#paint36_linear_2_2)" stroke-width="0.3" stroke-miterlimit="10"/>
<path d="M1935.23 74.0504C1848.72 73.6704 1771.05 66.3343 1683.11 69.1645C1605.46 71.6599 1543.29 79.1644 1466.93 82.1177C1387.37 85.194 1293.3 81.4319 1215.69 78.6794C1137.81 75.9216 1063.89 72.0219 988.319 68.3791C920.025 65.0856 879.93 71.1894 821.13 74.5825C784.485 76.6979 753.494 76.1912 718.259 73.8586C673.141 70.8468 626.733 68.1994 579.281 65.9307C499.883 62.1721 399.59 57.7983 314.579 59.4161C204.565 61.5098 111.604 71.4247 1.5903 73.7012" stroke="url(#paint37_linear_2_2)" stroke-width="0.3" stroke-miterlimit="10"/>
<path d="M1935.21 75.3497C1848.25 74.9679 1770.6 67.5684 1682.16 70.3769C1604.56 72.8416 1541.95 80.2375 1465.56 83.1202C1386.04 86.1205 1292.47 82.3131 1214.93 79.5842C1137.62 76.8698 1063.73 73.0316 988.078 69.6476C920.267 66.6129 878.695 72.5086 819.492 75.6718C782.646 77.6407 751.413 77.096 716.326 74.767C671.517 71.7839 625.317 69.1962 578.02 67.0201C498.487 63.4008 398.503 59.3183 313.854 60.9741C204.606 63.1095 110.638 72.4398 1.61767 74.8557" stroke="url(#paint38_linear_2_2)" stroke-width="0.3" stroke-miterlimit="10"/>
<path d="M1935.18 76.6238C1847.74 76.2329 1770.02 68.7628 1681.07 71.5569C1603.53 73.9781 1540.46 81.2564 1463.99 84.0613C1384.52 86.9748 1291.47 83.1402 1214.09 80.4421C1137.33 77.7638 1063.52 74.0125 987.836 70.8891C920.496 68.1114 877.366 73.7845 817.719 76.7052C780.645 78.5148 749.17 77.9285 714.191 75.6194C669.679 72.6717 623.672 70.1531 576.516 68.0824C496.728 64.6025 397.308 60.8657 312.968 62.5504C204.512 64.7219 109.577 73.4461 1.5775 75.9868" stroke="url(#paint39_linear_2_2)" stroke-width="0.3" stroke-miterlimit="10"/>
<path d="M1935.15 77.8688C1847.19 77.467 1769.48 69.9246 1679.88 72.6806C1602.39 75.0657 1538.82 82.2209 1462.27 84.9389C1382.87 87.7565 1290.39 83.9093 1213.13 81.2455C1136.9 78.6162 1063.15 74.9589 987.541 72.0997C920.657 69.5663 875.875 75.0078 815.759 77.677C778.429 79.3328 746.713 78.6831 711.814 76.4102C667.613 73.5072 621.824 71.0655 574.851 69.1066C494.754 65.786 396.14 62.4346 312.042 64.1392C204.391 66.3108 108.557 74.4359 1.57735 77.0816" stroke="url(#paint40_linear_2_2)" stroke-width="0.3" stroke-miterlimit="10"/>
<path d="M1935.13 79.0829C1846.61 78.6667 1768.82 71.0518 1678.66 73.7699C1601.12 76.0989 1537.06 83.131 1460.41 85.755C1381.1 88.4694 1289.26 84.6239 1212 82C1136.33 79.4267 1062.64 75.8745 987.111 73.2813C920.683 70.9994 874.156 76.1875 813.543 78.5925C775.945 80.0836 744 79.3706 709.128 77.1086C665.249 74.2566 619.689 71.9002 572.917 70.0638C492.511 66.9133 394.891 63.9744 310.981 65.699C204.176 67.8832 107.482 75.375 1.52342 78.1112" stroke="url(#paint41_linear_2_2)" stroke-width="0.3" stroke-miterlimit="10"/>
<path d="M1935.1 80.261C1846.03 79.8322 1768.15 72.1449 1677.19 74.8177C1599.78 77.0942 1535.18 83.9888 1458.45 86.5132C1379.23 89.1209 1288.03 85.2845 1210.94 82.7131C1135.82 80.2013 1062.19 76.7667 986.815 74.4377C920.804 72.3965 872.437 77.3331 811.354 79.4612C773.488 80.784 741.288 80.0041 706.403 77.7583C662.855 74.9633 617.539 72.6989 570.997 70.9922C490.067 68.0244 393.656 65.5453 309.88 67.2662C203.908 69.4377 106.449 76.2998 1.49681 79.1137" stroke="url(#paint42_linear_2_2)" stroke-width="0.3" stroke-miterlimit="10"/>
<path d="M1935.07 81.4193C1845.36 80.965 1767.33 73.2036 1675.73 75.8257C1598.33 78.0389 1533.17 84.796 1456.39 87.2154C1377.23 89.7073 1286.71 85.8926 1209.73 83.3646C1135.18 80.9162 1061.59 77.6118 986.426 75.5471C920.804 73.7374 870.531 78.4081 808.991 80.2521C770.843 81.4012 738.401 80.538 703.462 78.323C660.245 75.5907 615.18 73.4243 568.889 71.8536C487.462 69.0813 392.393 67.0781 308.725 68.8008C203.585 70.9633 105.428 77.1703 1.46995 80.0494" stroke="url(#paint43_linear_2_2)" stroke-width="0.3" stroke-miterlimit="10"/>
<path d="M1935.05 82.5394C1844.69 82.0616 1766.53 74.226 1674.16 76.7902C1596.83 78.9383 1531.14 85.5524 1454.22 87.8615C1375.17 90.2357 1285.36 86.4481 1208.5 83.9762C1134.48 81.5966 1060.99 78.4316 986.064 76.631C920.778 75.0621 868.557 79.4504 806.547 81.0193C768.13 81.9911 735.461 81.0428 700.401 78.8478C657.52 76.1834 612.717 74.1216 566.7 72.6951C484.79 70.1327 391.172 68.6271 307.543 70.3426C203.223 72.4797 104.448 78.0316 1.4431 80.9686" stroke="url(#paint44_linear_2_2)" stroke-width="0.3" stroke-miterlimit="10"/>
<path d="M1935.02 83.6252C1844.03 83.1221 1765.67 75.2123 1672.59 77.715C1595.24 79.7943 1529 86.2618 1451.99 88.4569C1373.05 90.7062 1283.95 86.9567 1207.14 84.5427C1133.65 82.2318 1060.27 79.2188 985.58 77.6806C920.576 76.3433 866.368 80.4457 803.915 81.7251C765.216 82.5195 732.318 81.4808 697.124 79.3183C654.577 76.7229 610.037 74.7675 564.31 73.4878C481.85 71.1479 389.829 70.1563 306.227 71.8591C202.833 73.9691 103.468 78.8515 1.41624 81.8373" stroke="url(#paint45_linear_2_2)" stroke-width="0.3" stroke-miterlimit="10"/>
<path d="M1934.99 84.6766C1843.35 84.1464 1764.78 76.1714 1670.94 78.5981C1593.59 80.605 1526.8 86.926 1449.7 89.0016C1370.86 91.1188 1282.48 87.4164 1205.77 85.0639C1132.78 82.8254 1059.53 79.9734 985.164 78.6958C920.388 77.5829 864.206 81.394 801.351 82.3838C762.41 82.9973 729.257 81.8645 693.929 79.7291C651.712 77.2075 607.441 75.3641 562.027 74.237C479.043 72.1324 388.647 71.6637 305.046 73.3539C202.404 75.4277 102.649 79.635 1.4836 82.6643" stroke="url(#paint46_linear_2_2)" stroke-width="0.3" stroke-miterlimit="10"/>
<path d="M1934.97 85.6899C1842.65 85.1326 1763.86 77.0762 1669.26 79.4395C1591.93 81.374 1524.55 87.543 1447.35 89.4901C1368.65 91.4807 1281.01 87.8198 1204.31 85.5325C1131.8 83.3609 1058.71 80.6845 984.654 79.6657C919.999 78.7754 861.897 82.2897 798.558 82.9882C759.335 83.4207 726.047 82.1883 690.383 80.0819C648.493 77.6354 604.491 75.9064 559.408 74.9354C370.076 70.7208 184.545 77.8308 1.29532 83.4406" stroke="url(#paint47_linear_2_2)" stroke-width="0.3" stroke-miterlimit="10"/>
<path d="M1934.94 86.6707C1841.94 86.0826 1762.92 77.9556 1667.54 80.2447C1590.21 82.1014 1522.25 88.1166 1444.96 89.9497C1366.39 91.8136 1279.49 88.198 1202.95 85.9776C1130.86 83.8803 1057.98 81.3776 984.264 80.623C919.623 79.9552 859.694 83.1564 795.886 83.5726C756.435 83.826 722.865 82.4869 687 80.4112C645.588 77.999 601.612 76.4608 556.965 75.6103C372.453 72.0942 180.006 78.6215 1.33567 84.1933" stroke="url(#paint48_linear_2_2)" stroke-width="0.3" stroke-miterlimit="10"/>
<path d="M1934.91 87.6117C1841.23 86.9928 1761.96 78.7953 1665.81 81.0084C1588.46 82.7945 1519.94 88.6486 1442.56 90.3587C1364.12 92.0905 1277.97 88.5237 1201.51 86.3775C1129.81 84.3598 1057.19 82.0345 983.808 81.526C919.045 81.0772 857.425 83.9762 793.133 84.0974C753.454 84.1716 719.669 82.7276 683.522 80.6773C642.379 78.3447 598.698 76.9386 554.427 76.2401C470.087 74.91 384.565 76.0428 300.923 77.6697C200.564 79.6223 100.057 81.7648 1.30882 84.9081" stroke="url(#paint49_linear_2_2)" stroke-width="0.3" stroke-miterlimit="10"/>
<path d="M1934.89 88.5148C1841.32 87.876 1762.16 79.664 1666.1 81.6871C1589.07 83.3158 1520.41 88.9419 1443.63 90.6483C1366.02 92.3729 1281.6 88.9509 1205.81 86.8843C1132.55 84.8937 1058.33 82.6697 983.337 82.3911C916.762 82.1431 851.893 84.8829 785.465 84.5626C745.37 84.369 711.948 82.6028 675.196 80.6412C637.021 78.6035 596.711 77.4363 555.944 76.8844C469.173 75.71 383.115 77.4418 297.378 79.0758C198.415 80.9615 98.5659 82.4128 1.24118 85.5651" stroke="url(#paint50_linear_2_2)" stroke-width="0.3" stroke-miterlimit="10"/>
<path d="M1934.87 89.3779C1840.66 88.7083 1761.18 80.4275 1664.41 82.3729C1587.36 83.9219 1518.15 89.3996 1441.25 90.9812C1363.8 92.5664 1280.05 89.1933 1204.37 87.1937C1131.46 85.2646 1057.53 83.2125 982.921 83.2125C915.957 83.2125 849.651 85.5885 782.673 84.9823C742.524 84.6204 708.82 82.7529 671.786 80.8329C633.866 78.8676 593.824 77.8235 553.406 77.4109C466.354 76.5224 381.785 78.8079 296.062 80.3968C197.744 82.219 97.9084 82.9954 1.26854 86.1875" stroke="url(#paint51_linear_2_2)" stroke-width="0.3" stroke-miterlimit="10"/>
<path d="M1934.85 90.1995C1839.92 89.4992 1760.28 81.1514 1662.69 83.0208C1585.61 84.4974 1515.87 89.8213 1438.86 91.2798C1361.57 92.7474 1278.48 89.3978 1202.84 87.4634C1130.33 85.6049 1056.68 83.7374 982.465 84.0016C915.017 84.2423 847.408 86.2618 779.866 85.3733C739.663 84.843 705.691 82.876 668.415 80.9976C630.817 79.103 590.964 78.1819 550.922 77.9086C463.641 77.3096 380.47 80.1381 294.773 81.6835C197.073 83.446 97.3845 83.5437 1.30855 86.7757" stroke="url(#paint52_linear_2_2)" stroke-width="0.3" stroke-miterlimit="10"/>
<path d="M1934.82 90.9794C1839.24 90.2556 1759.26 81.8372 1660.99 83.6287C1583.9 85.0348 1513.62 90.2139 1436.49 91.5422C1359.36 92.8704 1276.94 89.5661 1201.5 87.6986C1129.16 85.9071 1055.86 84.2151 982.049 84.7453C914.01 85.2339 845.246 86.8915 777.14 85.7243C736.857 85.0348 702.643 82.961 665.018 81.1261C627.393 79.2911 588.05 78.5021 548.384 78.3646C461.103 78.0588 379.033 81.4174 293.431 82.9194C196.294 84.624 96.6864 84.045 1.25498 87.324" stroke="url(#paint53_linear_2_2)" stroke-width="0.3" stroke-miterlimit="10"/>
<path d="M1934.81 91.7178C1838.57 90.9577 1758.31 82.4887 1659.33 84.197C1582.2 85.5343 1511.41 90.556 1434.18 91.772C1357.26 92.9827 1275.35 89.7 1200.05 87.8959C1127.93 86.1695 1055.03 84.6548 981.579 85.4456C912.869 86.1858 843.084 87.4833 774.374 86.0428C734.212 85.1995 699.595 83.0171 661.702 81.2238C624.507 79.4649 585.163 78.7881 545.927 78.7826C458.646 78.7682 377.623 82.6407 292.142 84.1029C195.461 85.7569 96.0956 84.5028 1.25506 87.8343" stroke="url(#paint54_linear_2_2)" stroke-width="0.3" stroke-miterlimit="10"/>
<path d="M1934.79 92.4108C1837.91 91.6255 1757.41 83.0859 1657.72 84.729C1580.55 85.9958 1509.25 90.8817 1431.92 91.9675C1355.09 93.0533 1274 89.7959 1198.68 88.0551C1126.71 86.3975 1054.17 85.053 981.149 86.1007C911.7 87.096 841.016 88.0334 771.675 86.3251C731.526 85.3389 696.614 83.0461 658.438 81.2944C621.418 79.597 582.41 79.0414 543.537 79.1645C456.39 79.4377 376.213 83.8061 290.852 85.2339C194.723 86.8408 95.612 84.9118 1.21456 88.3103" stroke="url(#paint55_linear_2_2)" stroke-width="0.3" stroke-miterlimit="10"/>
<path d="M1934.76 93.0604C1837.28 92.2479 1756.5 83.6505 1656.15 85.2212C1578.94 86.4318 1507.1 91.1604 1429.73 92.143C1353.06 93.1165 1272.63 89.8647 1197.35 88.189C1125.51 86.5947 1053.34 85.4185 980.733 86.7178C910.505 87.9736 838.949 88.5563 769.124 86.5857C729.015 85.4546 693.807 83.0533 655.296 81.3378C618.504 79.7091 579.698 79.2603 541.16 79.5083C454.242 80.0638 374.749 84.9063 289.537 86.3034C193.864 87.8723 95.0484 85.2737 1.10751 88.7391" stroke="url(#paint56_linear_2_2)" stroke-width="0.3" stroke-miterlimit="10"/>
<path d="M1934.75 93.6649C1836.73 92.8271 1755.65 84.1681 1654.66 85.6755C1577.41 86.83 1505.17 91.4156 1427.62 92.2896C1351.08 93.151 1271.24 89.9046 1196.09 88.2868C1124.34 86.7396 1052.53 85.7406 980.357 87.2861C909.31 88.8061 837.109 89.0414 766.68 86.8156C726.652 85.5488 691.108 83.0389 652.342 81.3632C615.738 79.7816 577.147 79.4541 539.012 79.8196C452.402 80.6502 373.46 85.9397 288.409 87.3186C193.071 88.8586 94.6591 85.5941 1.13441 89.1427" stroke="url(#paint57_linear_2_2)" stroke-width="0.3" stroke-miterlimit="10"/>
<path d="M1934.74 94.2204C1836.1 93.3627 1754.81 84.6457 1653.25 86.0934C1575.93 87.1937 1503.25 91.6435 1425.62 92.4108C1349.21 93.1654 1269.98 89.919 1194.89 88.3518C1123.22 86.8553 1051.75 86.0229 979.981 87.8089C908.209 89.595 835.296 89.4901 764.317 87.0181C724.383 85.6266 688.49 83.037 649.509 81.3685C613.254 79.8141 574.609 79.6186 536.944 80.1018C450.684 81.1876 372.185 86.9041 287.308 88.265C192.387 89.7869 94.2562 85.8618 1.13438 89.5064" stroke="url(#paint58_linear_2_2)" stroke-width="0.3" stroke-miterlimit="10"/>
<path d="M1934.66 94.738C1835.48 93.8621 1754.01 85.0873 1651.85 86.4789C1574.56 87.5267 1501.45 91.8426 1423.73 92.5104C1347.49 93.1654 1268.77 89.9081 1193.76 88.3862C1122.13 86.9386 1051 86.2636 979.645 88.2849C906.947 90.3424 833.604 89.9136 762.114 87.1991C722.261 85.6899 686.059 83.0026 646.85 81.3577C610.743 79.8431 572.299 79.7562 535.023 80.3371C494.351 80.9723 454.698 82.4272 415.65 84.0414C373.514 85.7804 330.155 88.4333 286.26 89.1354C191.661 90.6501 93.8665 86.0736 1.12065 89.8267" stroke="url(#paint59_linear_2_2)" stroke-width="0.3" stroke-miterlimit="10"/>
<path d="M1934.66 95.1903C1835 94.3 1753.38 85.4691 1650.63 86.8136C1573.27 87.827 1499.77 92.0235 1421.96 92.5917C1345.83 93.1545 1267.68 89.8773 1192.74 88.3934C1121.11 86.9783 1050.26 86.4626 979.322 88.7119C905.832 91.0427 832.006 90.3026 759.993 87.3529C720.313 85.7242 683.803 82.9555 644.393 81.3341C608.433 79.8557 570.164 79.8665 533.251 80.5469C492.658 81.2925 453.234 82.8741 414.415 84.5914C372.587 86.4408 329.162 89.2313 285.28 89.9388C190.976 91.4571 93.4902 86.2382 1.10687 90.1198" stroke="url(#paint60_linear_2_2)" stroke-width="0.3" stroke-miterlimit="10"/>
<path d="M1934.66 95.6012C1834.54 94.6964 1752.71 85.813 1649.52 87.1177C1572.11 88.0985 1498.25 92.1683 1420.37 92.6551C1344.36 93.1311 1266.73 89.8158 1191.84 88.37C1120.19 86.9892 1049.6 86.6183 979.081 89.0938C904.745 91.6942 830.583 90.6627 758.059 87.4869C718.528 85.7569 681.749 82.9031 642.137 81.2998C606.325 79.8521 568.284 79.9534 531.64 80.7225C491.141 81.5731 451.919 83.2741 413.3 85.0855C371.755 87.0345 328.276 89.9479 284.394 90.6664C190.399 92.2045 93.1413 86.3504 1.06689 90.3714" stroke="url(#paint61_linear_2_2)" stroke-width="0.3" stroke-miterlimit="10"/>
<path d="M1934.66 95.9612C1834.12 95.0564 1752.16 86.1115 1648.52 87.3855C1571.02 88.3391 1496.79 92.2968 1418.83 92.7039C1342.89 93.102 1265.75 89.738 1190.94 88.321C1119.27 86.9656 1048.88 86.7322 978.785 89.4195C903.684 92.2986 829.334 90.9957 756.3 87.6099C716.903 85.7803 679.883 82.8524 640.109 81.2635C604.418 79.8394 566.512 80.0203 530.216 80.8709C489.772 81.8191 450.764 83.6287 412.32 85.527C371.003 87.5701 327.497 90.5831 283.561 91.3178C189.754 92.8885 92.7385 86.4137 1.06689 90.5939" stroke="url(#paint62_linear_2_2)" stroke-width="0.3" stroke-miterlimit="10"/>
<path d="M1934.66 96.2689C1833.73 95.3641 1751.69 86.3631 1647.65 87.6172C1570.13 88.5509 1495.57 92.4036 1417.54 92.7474C1341.69 93.075 1265.05 89.6512 1190.25 88.2542C1118.53 86.9151 1048.27 86.8065 978.584 89.7019C902.704 92.856 828.313 91.307 754.743 87.7113C715.52 85.7931 678.285 82.7982 638.364 81.2202C602.78 79.8123 565.061 80.062 529.021 80.985C488.63 82.0219 449.797 83.9292 411.515 85.9071C370.385 88.0334 326.919 91.1242 282.863 91.8788C189.258 93.4984 92.3625 86.4138 1.05345 90.7786" stroke="url(#paint63_linear_2_2)" stroke-width="0.3" stroke-miterlimit="10"/>
<path d="M1934.66 96.5259C1834.23 95.6211 1752.46 86.6201 1649.02 87.7873C1567.29 88.7083 1488.28 92.8686 1405.8 92.7836C1335.29 92.7112 1264.54 89.5896 1194.89 88.2469C1120.89 86.8209 1050.06 86.8607 978.396 89.9135C898.93 93.2903 824.473 91.5151 747.881 87.4995C713.546 85.7008 680.836 83.2469 646.246 81.5622C609.642 79.7797 569.452 79.9534 531.787 80.9433C489.047 82.0653 448.132 84.2006 407.822 86.3721C367.189 88.569 323.992 91.6616 280.177 92.3855C187.525 93.9074 91.1674 86.3938 1.06689 90.9251" stroke="url(#paint64_linear_2_2)" stroke-width="0.3" stroke-miterlimit="10"/>
<path d="M1934.66 96.7285C1833.95 95.8364 1752.17 86.7756 1648.46 87.9446C1566.69 88.8676 1487.32 92.9301 1404.88 92.7944C1334.42 92.6768 1264.03 89.4683 1194.42 88.1238C1120.37 86.6942 1049.55 86.8354 978.235 90.0872C897.963 93.7499 823.896 91.7666 746.672 87.5538C712.499 85.6899 679.695 83.2143 645.011 81.5278C608.487 79.7435 568.472 79.9534 531.022 80.9994C488.308 82.1919 447.555 84.4195 407.365 86.649C366.786 88.9001 323.603 92.0271 279.68 92.7872C187.203 94.376 90.7377 86.2997 1.05345 91.0499" stroke="url(#paint65_linear_2_2)" stroke-width="0.3" stroke-miterlimit="10"/>
<path d="M1934.66 96.8733C1833.75 95.9957 1752.04 86.8807 1648.03 88.0678C1566.25 89.0015 1486.71 92.9772 1404.15 92.7981C1333.72 92.6461 1263.67 89.3345 1194.09 87.9791C1119.99 86.5314 1049.07 86.7612 978.208 90.2085C897.158 94.1499 823.681 92.0001 745.8 87.6099C711.706 85.6899 678.822 83.189 644.111 81.4826C607.614 79.6892 567.948 79.9154 530.525 81.0103C444.064 83.5437 366.598 91.4753 279.304 93.075C186.988 94.767 90.2678 86.146 1.05345 91.1351" stroke="url(#paint66_linear_2_2)" stroke-width="0.3" stroke-miterlimit="10"/>
<path d="M1934.66 96.9654C1833.59 96.1059 1751.9 86.9366 1647.77 88.1526C1565.98 89.1099 1486.17 93.0078 1403.65 92.7997C1333.21 92.6187 1263.47 89.1913 1193.91 87.8124C1119.79 86.343 1048.62 86.6398 978.168 90.2735C896.406 94.4917 823.748 92.217 745.128 87.6495C711.317 85.6897 678.352 83.0929 643.56 81.4534C606.607 79.7144 568.136 79.8555 530.31 80.9992C443.701 83.6195 366.665 91.5583 279.062 93.2738C186.867 95.0834 89.7304 85.9358 1.10687 91.1891" stroke="url(#paint67_linear_2_2)" stroke-width="0.3" stroke-miterlimit="10"/>
<path d="M1934.66 97C1833.48 96.1658 1751.94 86.9422 1647.7 88.2035C1565.92 89.1933 1485.99 93.0261 1403.32 92.8017C1332.86 92.6099 1263.39 89.0377 1193.85 87.6262C1119.72 86.1224 1048.18 86.468 978.141 90.2845C895.748 94.7778 824.111 92.4217 744.739 87.6805C672.229 83.3519 612.488 78.4243 530.377 80.9614C443.54 83.6451 366.867 91.5169 278.955 93.3699C186.867 95.3116 89.2205 85.67 0.999856 91.1984" stroke="url(#paint68_linear_2_2)" stroke-width="0.3" stroke-miterlimit="10"/>
<defs>
<linearGradient id="paint0_linear_2_2" x1="-1.39028e+06" y1="-502.12" x2="-1.39028e+06" y2="-489.53" gradientUnits="userSpaceOnUse">
<stop stop-color="#592CB8"/>
<stop offset="1" stop-color="#2C66B8"/>
</linearGradient>
<linearGradient id="paint1_linear_2_2" x1="-1.39024e+06" y1="-566.409" x2="-1.39024e+06" y2="-552.114" gradientUnits="userSpaceOnUse">
<stop stop-color="#592CB8"/>
<stop offset="1" stop-color="#2C66B8"/>
</linearGradient>
<linearGradient id="paint2_linear_2_2" x1="-1.39028e+06" y1="-1046.7" x2="-1.39028e+06" y2="-1020.3" gradientUnits="userSpaceOnUse">
<stop stop-color="#592CB8"/>
<stop offset="1" stop-color="#2C66B8"/>
</linearGradient>
<linearGradient id="paint3_linear_2_2" x1="-1.39028e+06" y1="-1756.6" x2="-1.39028e+06" y2="-1712.35" gradientUnits="userSpaceOnUse">
<stop stop-color="#592CB8"/>
<stop offset="1" stop-color="#2C66B8"/>
</linearGradient>
<linearGradient id="paint4_linear_2_2" x1="-1.39028e+06" y1="-2928.87" x2="-1.39028e+06" y2="-2855.19" gradientUnits="userSpaceOnUse">
<stop stop-color="#592CB8"/>
<stop offset="1" stop-color="#2C66B8"/>
</linearGradient>
<linearGradient id="paint5_linear_2_2" x1="-1.39028e+06" y1="-4216.35" x2="-1.39028e+06" y2="-4110.36" gradientUnits="userSpaceOnUse">
<stop stop-color="#592CB8"/>
<stop offset="1" stop-color="#2C66B8"/>
</linearGradient>
<linearGradient id="paint6_linear_2_2" x1="-1.39028e+06" y1="-5781.34" x2="-1.39028e+06" y2="-5636.08" gradientUnits="userSpaceOnUse">
<stop stop-color="#592CB8"/>
<stop offset="1" stop-color="#2C66B8"/>
</linearGradient>
<linearGradient id="paint7_linear_2_2" x1="-1.39026e+06" y1="-7426.07" x2="-1.39026e+06" y2="-7239.55" gradientUnits="userSpaceOnUse">
<stop stop-color="#592CB8"/>
<stop offset="1" stop-color="#2C66B8"/>
</linearGradient>
<linearGradient id="paint8_linear_2_2" x1="-1.39029e+06" y1="-9075.44" x2="-1.39029e+06" y2="-8847.55" gradientUnits="userSpaceOnUse">
<stop stop-color="#592CB8"/>
<stop offset="1" stop-color="#2C66B8"/>
</linearGradient>
<linearGradient id="paint9_linear_2_2" x1="-1.39025e+06" y1="-10643.6" x2="-1.39025e+06" y2="-10376.3" gradientUnits="userSpaceOnUse">
<stop stop-color="#592CB8"/>
<stop offset="1" stop-color="#2C66B8"/>
</linearGradient>
<linearGradient id="paint10_linear_2_2" x1="-1.39028e+06" y1="-12199.6" x2="-1.39028e+06" y2="-11893.3" gradientUnits="userSpaceOnUse">
<stop stop-color="#592CB8"/>
<stop offset="1" stop-color="#2C66B8"/>
</linearGradient>
<linearGradient id="paint11_linear_2_2" x1="-1.39028e+06" y1="-13396.1" x2="-1.39028e+06" y2="-13059.8" gradientUnits="userSpaceOnUse">
<stop stop-color="#592CB8"/>
<stop offset="1" stop-color="#2C66B8"/>
</linearGradient>
<linearGradient id="paint12_linear_2_2" x1="-1.39028e+06" y1="-14284.4" x2="-1.39028e+06" y2="-13925.8" gradientUnits="userSpaceOnUse">
<stop stop-color="#592CB8"/>
<stop offset="1" stop-color="#2C66B8"/>
</linearGradient>
<linearGradient id="paint13_linear_2_2" x1="-1.39032e+06" y1="-14762.2" x2="-1.39032e+06" y2="-14391.6" gradientUnits="userSpaceOnUse">
<stop stop-color="#592CB8"/>
<stop offset="1" stop-color="#2C66B8"/>
</linearGradient>
<linearGradient id="paint14_linear_2_2" x1="-1.39028e+06" y1="-14979.1" x2="-1.39028e+06" y2="-14603" gradientUnits="userSpaceOnUse">
<stop stop-color="#592CB8"/>
<stop offset="1" stop-color="#2C66B8"/>
</linearGradient>
<linearGradient id="paint15_linear_2_2" x1="-1.39025e+06" y1="-15198.9" x2="-1.39025e+06" y2="-14817.2" gradientUnits="userSpaceOnUse">
<stop stop-color="#592CB8"/>
<stop offset="1" stop-color="#2C66B8"/>
</linearGradient>
<linearGradient id="paint16_linear_2_2" x1="-1.39026e+06" y1="-15326.1" x2="-1.39026e+06" y2="-14941.2" gradientUnits="userSpaceOnUse">
<stop stop-color="#592CB8"/>
<stop offset="1" stop-color="#2C66B8"/>
</linearGradient>
<linearGradient id="paint17_linear_2_2" x1="-1.39031e+06" y1="-15367.6" x2="-1.39031e+06" y2="-14981.6" gradientUnits="userSpaceOnUse">
<stop stop-color="#592CB8"/>
<stop offset="1" stop-color="#2C66B8"/>
</linearGradient>
<linearGradient id="paint18_linear_2_2" x1="-1.39028e+06" y1="-15333.8" x2="-1.39028e+06" y2="-14948.6" gradientUnits="userSpaceOnUse">
<stop stop-color="#592CB8"/>
<stop offset="1" stop-color="#2C66B8"/>
</linearGradient>
<linearGradient id="paint19_linear_2_2" x1="-1.39028e+06" y1="-15232" x2="-1.39028e+06" y2="-14849.3" gradientUnits="userSpaceOnUse">
<stop stop-color="#592CB8"/>
<stop offset="1" stop-color="#2C66B8"/>
</linearGradient>
<linearGradient id="paint20_linear_2_2" x1="-1.39029e+06" y1="-14989.5" x2="-1.39029e+06" y2="-14612.8" gradientUnits="userSpaceOnUse">
<stop stop-color="#592CB8"/>
<stop offset="1" stop-color="#2C66B8"/>
</linearGradient>
<linearGradient id="paint21_linear_2_2" x1="-1.3903e+06" y1="-14829.2" x2="-1.3903e+06" y2="-14456.5" gradientUnits="userSpaceOnUse">
<stop stop-color="#592CB8"/>
<stop offset="1" stop-color="#2C66B8"/>
</linearGradient>
<linearGradient id="paint22_linear_2_2" x1="-1.39024e+06" y1="-14634" x2="-1.39024e+06" y2="-14266.2" gradientUnits="userSpaceOnUse">
<stop stop-color="#592CB8"/>
<stop offset="1" stop-color="#2C66B8"/>
</linearGradient>
<linearGradient id="paint23_linear_2_2" x1="-1.39028e+06" y1="-14426.3" x2="-1.39028e+06" y2="-14063.6" gradientUnits="userSpaceOnUse">
<stop stop-color="#592CB8"/>
<stop offset="1" stop-color="#2C66B8"/>
</linearGradient>
<linearGradient id="paint24_linear_2_2" x1="-1.39032e+06" y1="-14206.1" x2="-1.39032e+06" y2="-13848.9" gradientUnits="userSpaceOnUse">
<stop stop-color="#592CB8"/>
<stop offset="1" stop-color="#2C66B8"/>
</linearGradient>
<linearGradient id="paint25_linear_2_2" x1="-1.39026e+06" y1="-13982.8" x2="-1.39026e+06" y2="-13631.2" gradientUnits="userSpaceOnUse">
<stop stop-color="#592CB8"/>
<stop offset="1" stop-color="#2C66B8"/>
</linearGradient>
<linearGradient id="paint26_linear_2_2" x1="-1.39028e+06" y1="-13690.1" x2="-1.39028e+06" y2="-13345.8" gradientUnits="userSpaceOnUse">
<stop stop-color="#592CB8"/>
<stop offset="1" stop-color="#2C66B8"/>
</linearGradient>
<linearGradient id="paint27_linear_2_2" x1="-1.39024e+06" y1="-13482.2" x2="-1.39024e+06" y2="-13143.1" gradientUnits="userSpaceOnUse">
<stop stop-color="#592CB8"/>
<stop offset="1" stop-color="#2C66B8"/>
</linearGradient>
<linearGradient id="paint28_linear_2_2" x1="-1.39025e+06" y1="-13297.5" x2="-1.39025e+06" y2="-12963" gradientUnits="userSpaceOnUse">
<stop stop-color="#592CB8"/>
<stop offset="1" stop-color="#2C66B8"/>
</linearGradient>
<linearGradient id="paint29_linear_2_2" x1="-1.39024e+06" y1="-13153.5" x2="-1.39024e+06" y2="-12822.5" gradientUnits="userSpaceOnUse">
<stop stop-color="#592CB8"/>
<stop offset="1" stop-color="#2C66B8"/>
</linearGradient>
<linearGradient id="paint30_linear_2_2" x1="-1.39032e+06" y1="-13030.1" x2="-1.39032e+06" y2="-12702.2" gradientUnits="userSpaceOnUse">
<stop stop-color="#592CB8"/>
<stop offset="1" stop-color="#2C66B8"/>
</linearGradient>
<linearGradient id="paint31_linear_2_2" x1="-1.39028e+06" y1="-12971.8" x2="-1.39028e+06" y2="-12645.3" gradientUnits="userSpaceOnUse">
<stop stop-color="#592CB8"/>
<stop offset="1" stop-color="#2C66B8"/>
</linearGradient>
<linearGradient id="paint32_linear_2_2" x1="-1.39028e+06" y1="-12946.8" x2="-1.39028e+06" y2="-12620.9" gradientUnits="userSpaceOnUse">
<stop stop-color="#592CB8"/>
<stop offset="1" stop-color="#2C66B8"/>
</linearGradient>
<linearGradient id="paint33_linear_2_2" x1="-1.39031e+06" y1="-12868.1" x2="-1.39031e+06" y2="-12544.1" gradientUnits="userSpaceOnUse">
<stop stop-color="#592CB8"/>
<stop offset="1" stop-color="#2C66B8"/>
</linearGradient>
<linearGradient id="paint34_linear_2_2" x1="-1.39028e+06" y1="-12746.8" x2="-1.39028e+06" y2="-12425.8" gradientUnits="userSpaceOnUse">
<stop stop-color="#592CB8"/>
<stop offset="1" stop-color="#2C66B8"/>
</linearGradient>
<linearGradient id="paint35_linear_2_2" x1="-1.39031e+06" y1="-12567.3" x2="-1.39031e+06" y2="-12250.8" gradientUnits="userSpaceOnUse">
<stop stop-color="#592CB8"/>
<stop offset="1" stop-color="#2C66B8"/>
</linearGradient>
<linearGradient id="paint36_linear_2_2" x1="-1.39028e+06" y1="-12351.1" x2="-1.39028e+06" y2="-12040" gradientUnits="userSpaceOnUse">
<stop stop-color="#592CB8"/>
<stop offset="1" stop-color="#2C66B8"/>
</linearGradient>
<linearGradient id="paint37_linear_2_2" x1="-1.39031e+06" y1="-12091.6" x2="-1.39031e+06" y2="-11786.9" gradientUnits="userSpaceOnUse">
<stop stop-color="#592CB8"/>
<stop offset="1" stop-color="#2C66B8"/>
</linearGradient>
<linearGradient id="paint38_linear_2_2" x1="-1.39027e+06" y1="-11801.4" x2="-1.39027e+06" y2="-11504" gradientUnits="userSpaceOnUse">
<stop stop-color="#592CB8"/>
<stop offset="1" stop-color="#2C66B8"/>
</linearGradient>
<linearGradient id="paint39_linear_2_2" x1="-1.39028e+06" y1="-11472.1" x2="-1.39028e+06" y2="-11182.9" gradientUnits="userSpaceOnUse">
<stop stop-color="#592CB8"/>
<stop offset="1" stop-color="#2C66B8"/>
</linearGradient>
<linearGradient id="paint40_linear_2_2" x1="-1.39026e+06" y1="-11106" x2="-1.39026e+06" y2="-10826" gradientUnits="userSpaceOnUse">
<stop stop-color="#592CB8"/>
<stop offset="1" stop-color="#2C66B8"/>
</linearGradient>
<linearGradient id="paint41_linear_2_2" x1="-1.39028e+06" y1="-10728.1" x2="-1.39028e+06" y2="-10457.5" gradientUnits="userSpaceOnUse">
<stop stop-color="#592CB8"/>
<stop offset="1" stop-color="#2C66B8"/>
</linearGradient>
<linearGradient id="paint42_linear_2_2" x1="-1.39028e+06" y1="-10319.1" x2="-1.39028e+06" y2="-10058.7" gradientUnits="userSpaceOnUse">
<stop stop-color="#592CB8"/>
<stop offset="1" stop-color="#2C66B8"/>
</linearGradient>
<linearGradient id="paint43_linear_2_2" x1="-1.39028e+06" y1="-9906.8" x2="-1.39028e+06" y2="-9656.69" gradientUnits="userSpaceOnUse">
<stop stop-color="#592CB8"/>
<stop offset="1" stop-color="#2C66B8"/>
</linearGradient>
<linearGradient id="paint44_linear_2_2" x1="-1.39028e+06" y1="-9472.55" x2="-1.39028e+06" y2="-9233.29" gradientUnits="userSpaceOnUse">
<stop stop-color="#592CB8"/>
<stop offset="1" stop-color="#2C66B8"/>
</linearGradient>
<linearGradient id="paint45_linear_2_2" x1="-1.39028e+06" y1="-9040.07" x2="-1.39028e+06" y2="-8811.62" gradientUnits="userSpaceOnUse">
<stop stop-color="#592CB8"/>
<stop offset="1" stop-color="#2C66B8"/>
</linearGradient>
<linearGradient id="paint46_linear_2_2" x1="-1.39021e+06" y1="-8616.53" x2="-1.39021e+06" y2="-8398.66" gradientUnits="userSpaceOnUse">
<stop stop-color="#592CB8"/>
<stop offset="1" stop-color="#2C66B8"/>
</linearGradient>
<linearGradient id="paint47_linear_2_2" x1="-1.39033e+06" y1="-8162.56" x2="-1.39033e+06" y2="-7956.05" gradientUnits="userSpaceOnUse">
<stop stop-color="#592CB8"/>
<stop offset="1" stop-color="#2C66B8"/>
</linearGradient>
<linearGradient id="paint48_linear_2_2" x1="-1.39028e+06" y1="-7883.22" x2="-1.39028e+06" y2="-7683.69" gradientUnits="userSpaceOnUse">
<stop stop-color="#592CB8"/>
<stop offset="1" stop-color="#2C66B8"/>
</linearGradient>
<linearGradient id="paint49_linear_2_2" x1="-1.39028e+06" y1="-7538.42" x2="-1.39028e+06" y2="-7347.51" gradientUnits="userSpaceOnUse">
<stop stop-color="#592CB8"/>
<stop offset="1" stop-color="#2C66B8"/>
</linearGradient>
<linearGradient id="paint50_linear_2_2" x1="-1.39031e+06" y1="-7264.42" x2="-1.39031e+06" y2="-7080.36" gradientUnits="userSpaceOnUse">
<stop stop-color="#592CB8"/>
<stop offset="1" stop-color="#2C66B8"/>
</linearGradient>
<linearGradient id="paint51_linear_2_2" x1="-1.39028e+06" y1="-7042.9" x2="-1.39028e+06" y2="-6864.37" gradientUnits="userSpaceOnUse">
<stop stop-color="#592CB8"/>
<stop offset="1" stop-color="#2C66B8"/>
</linearGradient>
<linearGradient id="paint52_linear_2_2" x1="-1.39023e+06" y1="-6858.8" x2="-1.39023e+06" y2="-6684.87" gradientUnits="userSpaceOnUse">
<stop stop-color="#592CB8"/>
<stop offset="1" stop-color="#2C66B8"/>
</linearGradient>
<linearGradient id="paint53_linear_2_2" x1="-1.39025e+06" y1="-6702.19" x2="-1.39025e+06" y2="-6532.18" gradientUnits="userSpaceOnUse">
<stop stop-color="#592CB8"/>
<stop offset="1" stop-color="#2C66B8"/>
</linearGradient>
<linearGradient id="paint54_linear_2_2" x1="-1.39024e+06" y1="-6574.86" x2="-1.39024e+06" y2="-6408.02" gradientUnits="userSpaceOnUse">
<stop stop-color="#592CB8"/>
<stop offset="1" stop-color="#2C66B8"/>
</linearGradient>
<linearGradient id="paint55_linear_2_2" x1="-1.39026e+06" y1="-6580.36" x2="-1.39026e+06" y2="-6413.38" gradientUnits="userSpaceOnUse">
<stop stop-color="#592CB8"/>
<stop offset="1" stop-color="#2C66B8"/>
</linearGradient>
<linearGradient id="paint56_linear_2_2" x1="-1.39032e+06" y1="-6757.35" x2="-1.39032e+06" y2="-6585.93" gradientUnits="userSpaceOnUse">
<stop stop-color="#592CB8"/>
<stop offset="1" stop-color="#2C66B8"/>
</linearGradient>
<linearGradient id="paint57_linear_2_2" x1="-1.39029e+06" y1="-6940.47" x2="-1.39029e+06" y2="-6764.45" gradientUnits="userSpaceOnUse">
<stop stop-color="#592CB8"/>
<stop offset="1" stop-color="#2C66B8"/>
</linearGradient>
<linearGradient id="paint58_linear_2_2" x1="-1.39028e+06" y1="-7126.58" x2="-1.39028e+06" y2="-6945.89" gradientUnits="userSpaceOnUse">
<stop stop-color="#592CB8"/>
<stop offset="1" stop-color="#2C66B8"/>
</linearGradient>
<linearGradient id="paint59_linear_2_2" x1="-1.39023e+06" y1="-7317.82" x2="-1.39023e+06" y2="-7132.33" gradientUnits="userSpaceOnUse">
<stop stop-color="#592CB8"/>
<stop offset="1" stop-color="#2C66B8"/>
</linearGradient>
<linearGradient id="paint60_linear_2_2" x1="-1.39024e+06" y1="-7494.97" x2="-1.39024e+06" y2="-7305.03" gradientUnits="userSpaceOnUse">
<stop stop-color="#592CB8"/>
<stop offset="1" stop-color="#2C66B8"/>
</linearGradient>
<linearGradient id="paint61_linear_2_2" x1="-1.39027e+06" y1="-7668.05" x2="-1.39027e+06" y2="-7473.78" gradientUnits="userSpaceOnUse">
<stop stop-color="#592CB8"/>
<stop offset="1" stop-color="#2C66B8"/>
</linearGradient>
<linearGradient id="paint62_linear_2_2" x1="-1.39027e+06" y1="-7827.62" x2="-1.39027e+06" y2="-7629.34" gradientUnits="userSpaceOnUse">
<stop stop-color="#592CB8"/>
<stop offset="1" stop-color="#2C66B8"/>
</linearGradient>
<linearGradient id="paint63_linear_2_2" x1="-1.39028e+06" y1="-7973.99" x2="-1.39028e+06" y2="-7772.04" gradientUnits="userSpaceOnUse">
<stop stop-color="#592CB8"/>
<stop offset="1" stop-color="#2C66B8"/>
</linearGradient>
<linearGradient id="paint64_linear_2_2" x1="-1.39027e+06" y1="-8114.16" x2="-1.39027e+06" y2="-7908.7" gradientUnits="userSpaceOnUse">
<stop stop-color="#592CB8"/>
<stop offset="1" stop-color="#2C66B8"/>
</linearGradient>
<linearGradient id="paint65_linear_2_2" x1="-1.39028e+06" y1="-8219.69" x2="-1.39028e+06" y2="-8011.58" gradientUnits="userSpaceOnUse">
<stop stop-color="#592CB8"/>
<stop offset="1" stop-color="#2C66B8"/>
</linearGradient>
<linearGradient id="paint66_linear_2_2" x1="-1.39028e+06" y1="-8311.24" x2="-1.39028e+06" y2="-8100.84" gradientUnits="userSpaceOnUse">
<stop stop-color="#592CB8"/>
<stop offset="1" stop-color="#2C66B8"/>
</linearGradient>
<linearGradient id="paint67_linear_2_2" x1="-1.39024e+06" y1="-8367.19" x2="-1.39024e+06" y2="-8155.39" gradientUnits="userSpaceOnUse">
<stop stop-color="#592CB8"/>
<stop offset="1" stop-color="#2C66B8"/>
</linearGradient>
<linearGradient id="paint68_linear_2_2" x1="-1.39032e+06" y1="-8321.02" x2="-1.39032e+06" y2="-8110.37" gradientUnits="userSpaceOnUse">
<stop stop-color="#592CB8"/>
<stop offset="1" stop-color="#2C66B8"/>
</linearGradient>
</defs>
</svg>
