<svg width="1435" height="185" viewBox="0 0 1435 185" fill="none" xmlns="http://www.w3.org/2000/svg">
<path d="M-5 184C474.321 184 953.641 184 1432.96 184" stroke="url(#paint0_linear_1_1308)" stroke-width="0.4" stroke-miterlimit="10"/>
<path d="M-5 178.867C237.716 178.905 480.312 177.988 722.968 176.949C827.959 176.497 933.669 176.646 1038.65 177.598C1170.06 178.788 1301.54 177.667 1432.92 178.867" stroke="url(#paint1_linear_1_1308)" stroke-width="0.4" stroke-miterlimit="10"/>
<path d="M-5 173.81C63.7725 173.81 132.565 173.993 201.328 173.903C262.78 173.824 324.093 172.103 385.526 171.806C499.964 171.254 614.382 171.896 728.81 171.244C830.376 170.664 932.99 169.129 1034.49 171.471C1093.64 172.851 1152.19 173.479 1211.4 174.048C1285.29 174.759 1359.1 172.831 1432.96 173.81" stroke="url(#paint2_linear_1_1308)" stroke-width="0.4" stroke-miterlimit="10"/>
<path d="M-5 168.822C62.7839 168.822 130.748 169.215 198.512 168.791C262.191 168.391 325.501 165.586 389.131 164.865C503.789 163.565 617.547 167.28 732.085 166.618C832.872 166.045 932.231 161.395 1033.13 165.555C1092.1 167.987 1149.25 169.891 1208.66 170.447C1283.55 171.137 1358.08 167.78 1432.96 168.822" stroke="url(#paint3_linear_1_1308)" stroke-width="0.4" stroke-miterlimit="10"/>
<path d="M-5 163.93C61.5557 163.93 128.601 164.558 195.106 163.692C261.612 162.826 327.169 158.842 393.475 157.555C453.75 156.386 513.175 156.7 573.13 159.246C626.864 161.529 679.06 163.178 733.233 162.93C780.716 162.709 825.203 160.218 872.097 157.897C925.761 155.237 981.012 156.479 1034.18 159.867C1092.69 163.599 1147.89 167.169 1207.64 167.576C1283.01 168.094 1357.54 163.037 1432.96 163.93" stroke="url(#paint4_linear_1_1308)" stroke-width="0.4" stroke-miterlimit="10"/>
<path d="M-5 159.108C60.1177 159.108 126.224 159.953 191.232 158.601C260.693 157.159 328.977 151.936 398.288 149.977C457.799 148.273 517.708 149.441 576.286 153.447C628.582 156.973 679.14 160.122 732.594 159.977C782.094 159.843 826.881 155.514 874.933 152.012C929.475 148.038 983.449 149.546 1037.16 154.365C1094.73 159.539 1147.88 165.114 1208.04 165.262C1283.54 165.452 1357.33 158.528 1432.96 159.111" stroke="url(#paint5_linear_1_1308)" stroke-width="0.4" stroke-miterlimit="10"/>
<path d="M-5 154.361C58.5799 154.34 123.718 155.396 187.078 153.55C259.815 151.45 330.874 144.968 403.341 142.26C464.155 139.99 520.355 142.101 579.012 147.803C629.231 152.688 677.872 157.58 730.547 157.59C782.633 157.59 828.968 151.087 878.398 146.341C934.708 140.935 986.634 142.508 1041.66 149.038C1097.66 155.682 1149.07 163.527 1209.57 163.354C1284.96 163.12 1357.36 154.202 1432.96 154.361" stroke="url(#paint6_linear_1_1308)" stroke-width="0.4" stroke-miterlimit="10"/>
<path d="M-5 149.691C56.9721 149.66 121.131 150.832 182.734 148.563C258.806 145.762 332.522 138.028 408.324 134.537C469.987 131.698 523.511 134.733 581.219 142.329C628.831 148.597 675.595 155.389 727.412 155.603C782.174 155.831 831.544 146.9 882.192 140.887C940.679 133.943 990.619 135.42 1047.14 143.882C1100.96 151.94 1151.15 162.285 1211.9 161.705C1287.03 160.988 1357.52 150.022 1432.94 149.691" stroke="url(#paint7_linear_1_1308)" stroke-width="0.4" stroke-miterlimit="10"/>
<path d="M-5 145.096C55.3844 145.054 118.545 146.303 178.48 143.657C257.807 140.156 334.189 131.208 413.147 126.937C476.058 123.533 526.546 127.431 583.036 137.027C627.713 144.616 672.589 153.382 723.687 153.844C781.126 154.358 834.46 142.757 886.276 135.627C913.418 131.912 942.027 128.431 971.616 129.231C1000.57 130.018 1028 134.23 1053.32 138.89C1104.37 148.263 1154.1 161.164 1214.84 160.177C1289.63 158.96 1357.77 145.951 1432.97 145.106" stroke="url(#paint8_linear_1_1308)" stroke-width="0.4" stroke-miterlimit="10"/>
<path d="M-4.95068 140.58C53.9658 140.528 116.098 141.808 174.395 138.855C256.748 134.695 335.517 124.591 417.401 119.583C481.749 115.643 529.322 120.331 584.284 131.904C625.955 140.68 668.954 151.405 719.592 152.133C779.507 152.992 837.425 138.662 890.23 130.552C917.891 126.302 948.398 121.821 979.294 122.808C1008.25 123.732 1035.38 128.783 1059.6 134.019C1107.88 144.464 1157.1 159.97 1218 158.587C1292.47 156.89 1357.98 141.905 1432.98 140.58" stroke="url(#paint9_linear_1_1308)" stroke-width="0.4" stroke-miterlimit="10"/>
<path d="M-4.94006 136.144C52.5684 136.082 113.782 137.362 170.591 134.191C255.631 129.441 336.516 118.272 420.936 112.594C453.081 110.434 483.547 109.185 515.033 112.973C540.686 116.06 563.254 121.48 585.024 126.958C623.968 136.751 665.08 149.311 715.598 150.294C777.71 151.505 840.282 134.578 893.946 125.64C922.086 120.952 954.47 115.522 986.544 116.671C1015.63 117.706 1042.41 123.525 1065.58 129.272C1111.3 140.601 1159.93 158.532 1221.15 156.797C1295.36 154.689 1358.15 137.848 1433.02 136.127" stroke="url(#paint10_linear_1_1308)" stroke-width="0.4" stroke-miterlimit="10"/>
<path d="M-4.93018 131.78C51.37 131.715 111.754 132.988 167.256 129.673C254.452 124.464 336.875 112.335 423.423 106.122C455.677 103.808 486.054 102.373 517.379 106.671C542.793 110.179 564.453 116.199 585.163 122.215C621.821 132.85 661.215 146.986 711.984 148.176C744.428 148.938 777.051 143.091 805.072 138.141C836.157 132.65 866.045 126.392 897.121 120.893C925.681 115.843 959.632 109.648 992.785 110.941C1022.08 112.083 1048.44 118.496 1070.78 124.671C1114.4 136.744 1162.12 156.703 1223.93 154.682C1298 152.267 1358.17 133.75 1433.03 131.766" stroke="url(#paint11_linear_1_1308)" stroke-width="0.4" stroke-miterlimit="10"/>
<path d="M-4.92017 127.496C50.3715 127.43 110.117 128.707 164.55 125.33C253.284 119.827 336.666 106.871 424.661 100.272C456.765 97.8571 487.372 96.3152 518.378 100.92C543.762 104.691 564.772 111.228 584.734 117.658C619.864 128.969 657.77 144.278 709.158 145.599C742.49 146.448 776.063 140.114 804.522 134.878C836.647 128.962 867.433 122.228 899.558 116.305C928.517 110.962 963.467 104.28 997.509 105.643C1027.12 106.829 1053.02 113.642 1074.76 120.172C1117.03 132.863 1163.28 154.254 1226.08 152.098C1300.16 149.556 1358.03 129.552 1433.04 127.51" stroke="url(#paint12_linear_1_1308)" stroke-width="0.4" stroke-miterlimit="10"/>
<path d="M-4.90015 123.287C49.6126 123.232 108.988 124.533 162.622 121.183C252.105 115.595 335.717 101.959 424.391 95.1801C456.056 92.7654 487.232 91.1924 517.799 95.8287C543.393 99.7094 564.113 106.598 583.705 113.301C618.276 125.147 655.064 141.07 707.53 142.353C741.602 143.188 775.264 136.789 804.123 131.314C836.926 125.105 868.282 118.027 901.075 111.811C930.404 106.25 965.504 99.4611 1000.24 100.813C1030.2 101.979 1055.67 108.916 1077.14 115.726C1119.08 129.024 1163.12 150.956 1227.39 148.821C1301.66 146.355 1357.78 125.119 1433.1 123.294" stroke="url(#paint13_linear_1_1308)" stroke-width="0.4" stroke-miterlimit="10"/>
<path d="M-4.89014 119.148C49.4229 119.03 108.609 120.493 162.013 117.078C250.887 111.383 333.43 97.3396 421.406 90.4025C452.981 87.9153 484.137 86.4251 514.683 91.0061C540.646 94.9076 561.777 101.879 581.658 108.665C616.868 120.683 654.046 136.81 707.2 138.314C741.512 139.283 774.974 132.963 803.963 127.403C836.817 121.097 868.112 113.88 900.956 107.571C930.424 101.907 965.344 95.2112 1000.34 96.66C1030.5 97.9087 1055.82 104.86 1077.33 111.745C1119.44 125.229 1162.64 146.872 1227.42 144.861C1301.9 142.557 1357.44 120.741 1433.07 119.148" stroke="url(#paint14_linear_1_1308)" stroke-width="0.4" stroke-miterlimit="10"/>
<path d="M-4.88025 115.102C49.6624 114.888 108.669 116.733 162.263 113.08C249.559 107.13 330.245 92.8554 416.612 85.6734C448.567 83.0138 478.904 81.6305 509.89 86.2426C536.323 90.1716 558.202 97.0708 578.812 103.797C615.191 115.685 653.936 131.974 707.09 134.026C741.192 135.344 774.774 129.007 803.514 123.45C835.968 117.175 866.794 109.952 899.238 103.67C928.646 97.9746 963.567 91.3307 998.517 93.052C1028.58 94.5319 1054.27 101.583 1076.08 108.392C1118.41 121.604 1162.86 142.84 1226.86 140.887C1301.52 138.607 1357.24 116.668 1433.05 115.102" stroke="url(#paint15_linear_1_1308)" stroke-width="0.4" stroke-miterlimit="10"/>
<path d="M-4.86011 111.124C49.9921 110.869 108.839 113.229 162.762 109.362C248.281 103.228 326.86 88.7677 411.41 81.4201C443.634 78.6121 473.262 77.3599 504.598 81.9134C531.44 85.8148 554.197 92.5346 575.577 99.2095C613.174 110.938 653.706 127.168 706.811 129.718C740.603 131.342 773.926 125.137 802.405 119.603C834.31 113.394 864.487 106.216 896.372 100.01C925.691 94.3042 960.282 87.8501 995.072 89.8163C1025.17 91.5204 1051.31 98.6024 1073.61 105.339C1116.5 118.275 1162.42 138.98 1225.93 137.055C1300.91 134.785 1356.94 112.704 1433.08 111.145" stroke="url(#paint16_linear_1_1308)" stroke-width="0.4" stroke-miterlimit="10"/>
<path d="M-4.84021 107.223C50.3915 106.978 109.208 109.962 163.511 105.898C247.073 99.651 323.365 85.0421 405.928 77.5668C438.282 74.6381 467.35 73.5377 498.946 77.9601C526.267 81.7822 549.874 88.3088 572.082 94.863C611.247 106.381 653.197 122.377 706.452 125.395C739.844 127.286 772.578 121.349 800.778 115.854C831.984 109.769 861.392 102.652 892.578 96.5602C921.786 90.8511 955.708 84.7178 990.289 86.9014C1020.53 88.8159 1047.21 95.8703 1070.18 102.514C1113.92 115.164 1161.48 135.233 1224.65 133.319C1300.09 131.032 1356.55 108.803 1433.15 107.233" stroke="url(#paint17_linear_1_1308)" stroke-width="0.4" stroke-miterlimit="10"/>
<path d="M-4.83032 103.397C50.8507 103.204 109.647 106.905 164.44 102.666C245.904 96.3633 319.77 81.6233 400.205 74.1066C432.54 71.0779 461.209 70.1362 492.964 74.3654C520.775 78.0702 545.21 84.3691 568.327 90.7233C609.269 101.979 652.498 117.592 705.952 121.045C770.461 125.216 835.648 103.511 887.924 93.2794C917.023 87.5807 950.026 81.8716 984.307 84.2622C1014.78 86.3906 1042.03 93.376 1065.78 99.9198C1110.64 112.273 1159.97 131.625 1222.98 129.7C1298.98 127.382 1355.98 104.991 1433.13 103.397" stroke="url(#paint18_linear_1_1308)" stroke-width="0.4" stroke-miterlimit="10"/>
<path d="M-4.8103 99.6511C51.3601 99.5441 110.167 104.039 165.528 99.6511C244.806 93.3453 316.125 78.5362 394.324 70.9955C426.548 67.8908 454.938 67.1181 486.783 71.1024C515.103 74.652 540.387 80.6715 564.413 86.8256C607.132 97.7607 651.649 112.853 705.373 116.733C768.903 121.314 831.284 100.238 882.592 90.1716C910.961 84.6144 944.035 79.0123 977.377 81.8754C1008.33 84.5316 1035.6 90.972 1060.71 97.5261C1106.85 109.565 1158.08 128.134 1221.09 126.189C1297.74 123.826 1355.35 101.265 1433.15 99.6269" stroke="url(#paint19_linear_1_1308)" stroke-width="0.4" stroke-miterlimit="10"/>
<path d="M-4.79028 95.9773C51.9093 95.9773 110.776 101.335 166.757 96.7845C243.777 90.5235 312.48 75.6524 388.372 68.153C520.186 55.1171 588.948 103.242 704.734 112.452C767.145 117.423 826.371 97.1053 876.75 87.243C904.99 81.7237 936.785 76.6976 969.708 79.7229C1001.05 82.6033 1028.96 88.9022 1055.08 95.3323C1102.66 107.061 1155.87 124.785 1219.01 122.808C1296.38 120.393 1354.66 97.6573 1433.18 95.9773" stroke="url(#paint20_linear_1_1308)" stroke-width="0.4" stroke-miterlimit="10"/>
<path d="M-4.77026 92.383C52.4786 92.5279 111.445 98.7647 168.095 94.0802C242.819 87.902 308.895 72.9964 382.421 65.5625C511.508 52.5162 590.126 98.3335 704.045 108.203C765.378 113.522 821.049 94.1043 870.509 84.4317C898.629 78.9331 929.036 74.5694 961.49 77.7326C993.255 80.8372 1021.87 86.9775 1049.04 93.273C1098.15 104.657 1153.39 121.528 1216.8 119.507C1294.92 117.02 1353.93 94.1181 1433.21 92.383" stroke="url(#paint21_linear_1_1308)" stroke-width="0.4" stroke-miterlimit="10"/>
<path d="M-4.75037 88.864C53.0677 89.1572 112.154 96.3047 169.513 91.5029C241.95 85.4385 305.32 70.5157 376.569 63.1819C502.92 50.1735 591.265 93.4864 703.336 104.015C763.57 109.672 815.457 91.2097 864.048 81.7268C892.068 76.2592 920.967 72.5958 952.922 75.8625C985.126 79.1707 1014.48 85.1764 1042.72 91.3166C1093.41 102.355 1150.69 118.348 1214.42 116.281C1293.31 113.718 1353.1 90.644 1433.17 88.8502" stroke="url(#paint22_linear_1_1308)" stroke-width="0.4" stroke-miterlimit="10"/>
<path d="M-4.73047 85.4215C53.6468 85.8665 112.903 93.9281 171.02 89.0263C241.221 83.0999 301.975 68.1701 370.927 60.9605C494.592 48.0281 592.383 88.74 702.617 99.8993C761.763 105.888 809.755 88.4088 857.517 79.1087C885.418 73.6757 912.909 70.7332 944.334 74.1172C976.988 77.6358 1007.12 83.4897 1036.41 89.4782C1088.69 100.172 1147.99 115.281 1212.11 113.163C1291.83 110.527 1352.37 87.2911 1433.23 85.4215" stroke="url(#paint23_linear_1_1308)" stroke-width="0.4" stroke-miterlimit="10"/>
<path d="M-4.71045 82.0583C54.206 82.6516 113.662 91.6068 172.448 86.6221C240.492 80.851 298.679 65.9247 365.435 58.8565C486.653 46.0241 593.512 84.0867 701.958 95.8704C760.025 102.183 804.113 85.6873 851.096 76.5528C878.877 71.1542 905.02 68.9327 935.846 72.4133C968.949 76.1458 999.835 81.8651 1030.18 87.688C1084 98.0161 1145.27 112.273 1209.84 110.11C1290.35 107.402 1351.64 83.9763 1433.29 82.0652" stroke="url(#paint24_linear_1_1308)" stroke-width="0.4" stroke-miterlimit="10"/>
<path d="M-4.69043 78.7672C54.8152 79.5019 114.411 89.316 173.916 84.2624C239.913 78.6568 295.644 63.7408 360.322 56.8244C479.214 44.1093 594.62 79.5295 701.249 91.9377C758.348 98.5815 798.491 82.9998 844.825 74.0482C872.516 68.7013 897.291 67.149 927.598 70.7297C961.13 74.676 992.766 80.2816 1024.1 85.9354C1079.39 95.9081 1142.55 109.327 1207.57 107.109C1288.85 104.332 1350.85 80.7369 1433.25 78.7672" stroke="url(#paint25_linear_1_1308)" stroke-width="0.4" stroke-miterlimit="10"/>
<path d="M-4.67041 75.5557C55.3944 76.4112 115.16 87.0324 175.334 81.927C239.444 76.4905 292.868 61.5745 355.609 54.8203C416.473 48.2661 481.221 55.6654 538.07 63.5718C592.892 71.1988 645.009 81.2026 700.65 88.119C757.03 95.1286 792.989 80.2816 838.974 71.5611C900.037 59.9877 962.578 74.6657 1018.47 84.1831C1075.1 93.8143 1140.04 106.433 1205.48 104.166C1287.48 101.331 1350.16 77.5702 1433.29 75.5522" stroke="url(#paint26_linear_1_1308)" stroke-width="0.4" stroke-miterlimit="10"/>
<path d="M-4.65063 72.4166C55.9734 73.3721 115.749 84.7281 176.692 79.5848C239.094 74.3139 290.391 59.4082 351.445 52.8023C411.749 46.2688 478.205 53.3646 535.324 60.6052C591.255 67.6976 644.489 77.0632 700.12 84.4315C755.751 91.7998 788.245 77.6806 833.641 69.0843C893.316 57.7869 958.464 73.5688 1013.39 82.4169C1071.2 91.7308 1137.79 103.584 1203.6 101.286C1286.23 98.3988 1349.53 74.4794 1433.27 72.4166" stroke="url(#paint27_linear_1_1308)" stroke-width="0.4" stroke-miterlimit="10"/>
<path d="M-4.63049 69.3569C56.5628 70.3918 116.288 82.3825 177.941 77.2082C238.854 72.0993 288.264 57.2006 347.7 50.7223C407.545 44.2199 475.519 51.0259 532.897 57.6663C589.817 64.2585 644.12 73.0618 699.661 80.882C725.864 84.5696 745.067 84.7213 770.401 79.9644C790.992 76.0974 808.407 70.4815 828.968 66.5869C856.399 61.385 878.248 61.5298 906.977 65.3968C941.498 70.0503 975.131 75.4006 1009 80.5991C1067.79 89.5956 1135.82 100.758 1201.93 98.4403C1285.13 95.522 1348.96 71.4439 1433.3 69.3569" stroke="url(#paint28_linear_1_1308)" stroke-width="0.4" stroke-miterlimit="10"/>
<path d="M-4.6106 66.3694C57.1518 67.4043 116.697 79.9677 179.069 74.7761C238.774 69.8052 286.497 54.8513 344.734 48.5386C404.27 42.0844 473.492 48.6076 531.1 54.7478C588.708 60.8881 644.02 69.236 699.381 77.515C724.965 81.3406 743.669 81.8822 768.783 77.1494C788.695 73.3962 805.311 67.8562 825.173 64.0755C852.454 58.8804 873.964 59.4323 902.194 63.427C936.885 68.3357 971.036 73.6756 1005.55 78.7293C1065.07 87.4429 1134.43 97.9848 1200.64 95.6598C1284.3 92.7242 1348.56 68.5013 1433.31 66.4005" stroke="url(#paint29_linear_1_1308)" stroke-width="0.4" stroke-miterlimit="10"/>
<path d="M-4.59058 63.4649C57.751 64.4722 116.957 77.4702 180.028 72.2648C238.844 67.4043 285.079 52.3366 342.507 46.2102C401.963 39.8595 471.934 46.086 529.902 51.7881C588.339 57.5317 644.13 65.5312 699.262 74.2656C724.326 78.2326 742.82 79.0674 767.745 74.3345C787.117 70.6607 803.064 65.1552 822.377 61.4469C849.529 56.2346 871.018 57.0798 898.819 61.2262C933.559 66.4005 968.111 71.7543 1003.15 76.701C1063.07 85.1628 1133.59 95.1596 1199.74 92.8519C1283.73 89.9197 1348.3 65.5588 1433.41 63.4649" stroke="url(#paint30_linear_1_1308)" stroke-width="0.4" stroke-miterlimit="10"/>
<path d="M-4.57056 60.6329C58.3403 61.5471 117.037 74.859 180.807 69.6398C239.014 64.8759 284.25 49.7426 340.99 43.6886C400.256 37.369 471.145 43.461 529.263 48.8078C588.299 54.2409 644.34 62.0231 699.212 71.23C723.867 75.3695 742.46 76.3699 767.255 71.606C786.228 67.9598 801.676 62.4509 820.62 58.7702C847.671 53.513 869.46 54.5065 896.931 58.8426C931.602 64.3136 966.413 69.7053 1001.84 74.5692C1061.94 82.8172 1133.28 92.3656 1199.16 90.0923C1283.35 87.1912 1348.08 62.6992 1433.39 60.6329" stroke="url(#paint31_linear_1_1308)" stroke-width="0.4" stroke-miterlimit="10"/>
<path d="M-4.54053 57.8731C58.6898 58.6941 116.977 72.1509 181.136 66.8834C239.144 62.123 284.11 47.0035 340.67 40.984C399.876 34.6851 471.085 40.9012 529.223 46.1342C588.469 51.4673 644.33 59.1909 699.272 68.4392C723.837 72.5787 742.69 73.4411 767.315 68.7082C786.159 65.0862 801.507 59.6255 820.35 55.9931C847.312 50.798 869.5 51.7639 896.712 56.2242C931.233 61.8815 966.084 67.3146 1001.66 72.1302C1061.47 80.2264 1133.74 89.6679 1199.11 87.3084C1283.18 84.2796 1348.33 60.2016 1433.42 57.8835" stroke="url(#paint32_linear_1_1308)" stroke-width="0.4" stroke-miterlimit="10"/>
<path d="M-4.52075 55.1583C58.8494 55.9379 116.967 69.4843 181.276 64.1547C239.194 59.3529 284.39 44.3611 340.989 38.3795C400.196 32.122 471.245 38.6106 529.293 43.8781C588.349 49.2388 643.97 56.9486 699.292 65.7588C751.657 74.0964 777.611 61.2744 820.739 53.2782C847.701 48.2798 870.03 49.1905 896.991 53.668C931.363 59.3771 966.153 64.7964 1001.72 69.5568C1061.18 77.5115 1134.38 86.9978 1199.29 84.4383C1283 81.1336 1348.95 58.0352 1433.47 55.21" stroke="url(#paint33_linear_1_1308)" stroke-width="0.4" stroke-miterlimit="10"/>
<path d="M-4.50073 52.485C59.0592 53.237 117.037 66.8835 181.546 61.5091C239.463 56.6797 284.839 41.8465 341.469 35.9201C400.675 29.7109 471.514 36.4479 529.472 41.7327C588.299 47.0968 643.71 54.7721 699.351 63.1373C751.278 70.9471 778.16 58.3527 821.319 50.7188C848.28 45.9377 870.808 46.8208 897.531 51.3053C931.742 57.0454 966.433 62.4232 1001.99 67.1009C1061.21 74.8935 1135.14 84.2798 1199.51 81.5477C1282.8 78.0153 1349.56 55.9208 1433.46 52.6471" stroke="url(#paint34_linear_1_1308)" stroke-width="0.4" stroke-miterlimit="10"/>
<path d="M-4.48071 49.86C59.2989 50.5913 117.187 64.3482 181.935 58.9496C239.783 54.1271 285.428 39.463 342.098 33.5987C401.304 27.4929 471.914 34.399 529.762 39.6872C588.309 45.034 643.601 52.6507 699.441 60.5537C750.998 67.8426 778.799 55.5276 822.068 48.249C849.099 43.7059 871.797 44.589 898.319 49.07C932.341 54.8205 966.962 60.1363 1002.46 64.7035C1061.53 72.3098 1135.91 81.465 1199.84 78.5915C1282.72 74.8694 1350.25 53.8132 1433.51 50.136" stroke="url(#paint35_linear_1_1308)" stroke-width="0.4" stroke-miterlimit="10"/>
<path d="M-4.46082 47.2793C59.5884 48.0037 117.366 61.8676 182.444 56.4655C240.242 51.6706 286.167 37.172 342.887 31.425C402.073 25.4262 472.323 32.4875 530.151 37.7585C588.379 43.0708 643.501 50.6081 699.571 58.0351C750.739 64.8135 779.518 52.8228 822.986 45.9374C850.108 41.6392 872.985 42.5534 899.338 47.0206C933.094 52.8002 967.732 57.943 1003.1 62.4264C1062.12 69.8223 1136.71 78.6394 1200.27 75.6348C1282.61 71.7609 1350.97 51.7672 1433.5 47.7415" stroke="url(#paint36_linear_1_1308)" stroke-width="0.4" stroke-miterlimit="10"/>
<path d="M-4.43066 44.7477C59.9081 45.4721 117.666 59.4567 183.064 54.0615C240.812 49.3046 287.046 34.9992 343.836 29.3695C403.002 23.5052 472.953 30.6769 530.671 35.9237C588.589 41.1808 643.561 48.6147 699.761 55.5587C750.549 61.8369 780.367 50.2015 824.095 43.7335C851.346 39.7009 874.394 40.6668 900.596 45.1133C934.149 50.8547 968.661 55.9011 1003.95 60.2259C1063 67.3907 1137.58 75.7283 1200.8 72.6444C1282.61 68.6532 1351.75 49.753 1433.56 45.4134" stroke="url(#paint37_linear_1_1308)" stroke-width="0.4" stroke-miterlimit="10"/>
<path d="M-4.41089 42.2708C60.2574 42.9987 118.006 57.104 183.772 51.7502C241.481 47.0519 288.045 32.9535 344.854 27.4583C403.99 21.7389 473.571 28.9968 531.24 34.1988C588.728 39.3732 643.68 46.6897 699.941 53.1404C750.369 58.9253 781.285 47.6866 825.313 41.6568C852.714 37.9036 875.941 38.942 902.034 43.3816C935.357 49.068 969.714 54.001 1004.89 58.1492C1064.03 65.0483 1138.39 72.8306 1201.34 69.6742C1282.58 65.6037 1352.47 47.8177 1433.54 43.2125" stroke="url(#paint38_linear_1_1308)" stroke-width="0.4" stroke-miterlimit="10"/>
<path d="M-4.39087 39.8422C60.6369 40.5873 118.435 54.8271 184.581 49.501C242.249 44.8854 289.153 31.0112 346.022 25.6644C405.119 20.1106 474.321 27.4202 531.859 32.5635C588.948 37.6689 643.84 44.8199 700.12 50.7739C750.199 56.069 782.274 45.2545 826.631 39.6869C854.202 36.2373 877.609 37.355 903.622 41.7567C936.724 47.3757 970.938 52.1769 1006.01 56.1242C1065.34 62.7577 1139.28 69.8811 1202 66.6695C1282.65 62.53 1353.25 45.8996 1433.57 41.0564" stroke="url(#paint39_linear_1_1308)" stroke-width="0.4" stroke-miterlimit="10"/>
<path d="M-4.37097 37.4689C61.0463 38.2347 118.834 52.6125 185.47 47.3588C243.098 42.8122 290.371 29.1726 347.3 23.9914C406.347 18.6204 475.119 25.9542 532.578 31.0319C589.267 36.0442 644.11 43.0158 700.34 48.4661C750.08 53.2955 783.382 42.9226 828.089 37.8345C855.85 34.6781 879.436 35.9165 905.389 40.2492C938.26 45.7831 972.312 50.4376 1007.24 54.1717C1066.81 60.5017 1140.15 66.8903 1202.69 63.6408C1282.74 59.5013 1354.01 44.0127 1433.57 38.9694" stroke="url(#paint40_linear_1_1308)" stroke-width="0.4" stroke-miterlimit="10"/>
<path d="M-4.35083 35.1544C61.4759 35.9478 119.324 50.4637 186.379 45.2824C244.037 40.8428 291.68 27.4377 348.679 22.4359C407.665 17.2615 475.958 24.5918 533.417 29.5937C589.687 34.499 644.489 41.2705 700.66 46.2138C750.06 50.5637 784.661 40.6738 829.737 36.0893C857.697 33.2468 881.453 34.606 907.387 38.9179C940.019 44.3546 973.9 48.8465 1008.68 52.3471C1068.48 58.3528 1141.08 63.955 1203.48 60.6675C1282.9 56.5039 1354.81 42.2226 1433.61 37.0069" stroke="url(#paint41_linear_1_1308)" stroke-width="0.4" stroke-miterlimit="10"/>
<path d="M-4.33093 32.9084C61.9052 33.7259 119.823 48.3797 187.467 43.2847C245.036 38.9451 293.077 25.8023 350.137 20.9901C409.053 16.0193 476.877 23.3324 534.206 28.2342C590.066 33.0222 644.829 39.5695 700.879 44.0091C749.97 47.9002 785.939 38.4898 831.364 34.4331C859.524 31.9115 883.471 33.3982 909.414 37.6791C941.799 43.0071 975.499 47.3236 1010.11 50.5771C1070.3 56.2344 1141.99 60.9603 1204.3 57.6798C1283.1 53.5403 1355.58 40.4595 1433.63 35.0954" stroke="url(#paint42_linear_1_1308)" stroke-width="0.4" stroke-miterlimit="10"/>
<path d="M-4.31104 30.7008C62.4044 31.5666 120.432 46.3618 188.556 41.3634C246.114 37.1446 294.575 24.2639 351.674 19.6518C410.541 14.9017 477.855 22.1734 535.104 26.9925C590.546 31.6597 645.268 37.9587 701.169 41.8946C749.97 45.3442 787.357 36.4409 833.122 32.9257C861.492 30.7353 885.617 32.3807 911.601 36.603C943.74 41.8115 977.253 45.9412 1011.68 48.9352C1072.23 54.22 1142.93 58.0387 1205.15 54.7547C1283.34 50.6324 1356.34 38.8004 1433.65 33.3121" stroke="url(#paint43_linear_1_1308)" stroke-width="0.4" stroke-miterlimit="10"/>
<path d="M-4.29102 28.5656C62.9037 29.4762 121.031 44.4129 189.724 39.5249C247.232 35.4302 296.083 22.822 353.282 18.4204C412.069 13.8945 478.864 21.1145 536.023 25.8266C591.065 30.3628 645.718 36.3961 701.439 39.8284C749.99 42.8192 788.825 34.454 834.939 31.4632C863.509 29.6108 887.804 31.4184 913.877 35.6027C945.766 40.6817 979.085 44.6119 1013.31 47.3312C1074.22 52.2158 1143.84 55.0859 1206.03 51.8157C1283.61 47.7417 1357.07 37.1584 1433.67 31.5598" stroke="url(#paint44_linear_1_1308)" stroke-width="0.4" stroke-miterlimit="10"/>
<path d="M-4.271 26.496C63.3931 27.455 121.67 42.5331 190.892 37.7623C248.411 33.7987 297.671 21.47 354.94 17.2856C413.647 12.9978 479.913 20.1453 537.032 24.7471C591.684 29.1522 646.257 34.8957 701.798 37.8278C750.14 40.3771 790.452 32.5569 836.897 30.118C865.676 28.6037 890.141 30.5837 916.314 34.706C947.955 39.6536 981.078 43.381 1015.08 45.8205C1076.41 50.2808 1144.84 52.1712 1207.01 48.9251C1283.9 44.9029 1357.8 35.596 1433.69 29.9042" stroke="url(#paint45_linear_1_1308)" stroke-width="0.4" stroke-miterlimit="10"/>
<path d="M-4.2511 24.4915C63.9023 25.5022 122.329 40.7045 192.121 36.0786C249.639 32.253 299.309 20.2037 356.647 16.247C415.274 12.211 481.001 19.2688 538.05 23.7533C592.333 28.0204 646.806 33.4569 702.107 35.8923C750.279 38.0138 792.06 30.749 838.804 28.8621C867.763 27.6927 892.418 29.8521 918.69 33.9226C950.085 38.7295 983.009 42.2435 1016.78 44.3921C1078.49 48.4039 1145.72 49.2974 1207.89 46.0755C1284.22 42.1223 1358.41 34.102 1433.64 28.3274" stroke="url(#paint46_linear_1_1308)" stroke-width="0.4" stroke-miterlimit="10"/>
<path d="M-4.23108 22.5598C64.4216 23.6223 123.019 38.9798 193.369 34.4747C250.877 30.7871 300.986 19.0275 358.395 15.3157C416.922 11.5212 482.099 18.4997 539.139 22.86C593.062 26.9994 647.415 32.1014 702.487 34.0435C750.569 35.7407 793.778 29.0416 840.881 27.7101C870.05 26.8856 894.804 29.2348 921.327 33.2501C952.48 37.9137 985.202 41.2097 1018.73 43.0607C1159.53 51.0947 1297.5 37.5414 1433.78 26.8477" stroke="url(#paint47_linear_1_1308)" stroke-width="0.4" stroke-miterlimit="10"/>
<path d="M-4.21118 20.6904C64.9508 21.8115 123.717 37.3036 194.647 32.9399C252.155 29.4006 302.694 17.9342 360.172 14.4398C418.599 10.8867 483.228 17.779 540.147 22.0116C593.761 26.0097 647.954 30.7804 702.777 32.2189C750.848 33.4918 795.415 27.3895 842.868 26.5961C872.206 26.1131 897.171 28.6658 923.843 32.6225C954.64 37.2208 987.343 40.1529 1020.55 41.7742C1157.76 48.4767 1300.88 36.0341 1433.75 25.4129" stroke="url(#paint48_linear_1_1308)" stroke-width="0.4" stroke-miterlimit="10"/>
<path d="M-4.19116 18.8964C65.4801 20.0761 124.427 35.7027 195.935 31.4839C253.454 28.0792 304.411 16.9198 361.96 13.6599C420.287 10.3587 484.356 17.1578 541.216 21.249C594.54 25.0953 648.544 29.528 703.116 30.4973C751.278 31.3528 797.103 25.8266 844.915 25.5955C874.423 25.454 899.548 28.2068 926.43 32.1152C957.026 36.5617 989.51 39.242 1022.43 40.5735C1085.15 43.109 1148.75 40.9495 1210.96 37.8483C1285.59 34.1263 1360.33 30.042 1433.77 24.05" stroke="url(#paint49_linear_1_1308)" stroke-width="0.4" stroke-miterlimit="10"/>
<path d="M-4.17114 17.1749C65.4102 18.3926 124.277 34.0467 195.716 30.1901C253.004 27.0855 304.062 16.3608 361.161 13.1078C418.879 9.82035 481.66 16.3435 538.02 20.2829C592.503 24.0775 647.695 28.317 703.466 28.8482C752.976 29.3208 801.217 24.0982 850.617 24.7087C880.435 25.0778 905.29 28.4446 932.621 32.184C961.011 36.0682 990.988 38.2932 1021.31 39.3453C1085.83 41.584 1149.83 38.2828 1213.59 35.1678C1287.19 31.5734 1361.44 28.8068 1433.82 22.7977" stroke="url(#paint50_linear_1_1308)" stroke-width="0.4" stroke-miterlimit="10"/>
<path d="M-4.16113 15.5297C65.8996 16.8061 125.006 32.5913 196.974 28.883C254.273 25.9302 305.74 15.4883 362.928 12.4734C420.527 9.45159 482.808 15.8816 539.089 19.6934C593.312 23.3706 648.294 27.2824 703.775 27.2824C753.575 27.2824 802.885 22.7532 852.694 23.9088C882.552 24.5987 907.616 28.1586 935.157 31.8186C963.357 35.5649 993.135 37.5553 1023.19 38.3418C1087.93 40.0355 1150.82 35.6787 1214.57 32.65C1287.69 29.1763 1361.93 27.6964 1433.8 21.6113" stroke="url(#paint51_linear_1_1308)" stroke-width="0.4" stroke-miterlimit="10"/>
<path d="M-4.14124 13.9633C66.4487 15.2983 125.675 31.2112 198.252 27.6477C255.571 24.8329 307.437 14.6842 364.706 11.9039C422.184 9.10628 483.977 15.4914 540.227 19.179C594.151 22.7218 648.923 26.2817 704.115 25.7781C754.274 25.3193 804.552 21.4696 854.781 23.1633C884.679 24.174 909.943 27.9237 937.664 31.5044C965.624 35.1161 995.262 36.8719 1025.04 37.3928C1089.95 38.5346 1151.8 33.1429 1215.53 30.197C1288.19 26.8371 1362.32 26.6508 1433.77 20.4899" stroke="url(#paint52_linear_1_1308)" stroke-width="0.4" stroke-miterlimit="10"/>
<path d="M-4.12122 12.4767C66.958 13.8565 126.434 29.9039 199.52 26.4889C256.849 23.8085 309.115 13.9359 366.473 11.4039C423.832 8.87188 485.125 15.1708 541.226 18.7308C595.019 22.1458 649.532 25.3712 704.424 24.3605C755.023 23.4291 806.16 20.2693 856.808 22.4943C886.766 23.8085 912.21 27.7618 940.19 31.2596C968.17 34.7575 997.429 36.2615 1026.93 36.5237C1091.84 37.1067 1152.87 30.7042 1216.53 27.8411C1288.77 24.5916 1362.84 25.6955 1433.81 19.4448" stroke="url(#paint53_linear_1_1308)" stroke-width="0.4" stroke-miterlimit="10"/>
<path d="M-4.11133 11.0695C67.4572 12.5184 127.143 28.6624 200.748 25.406C258.107 22.8567 310.752 13.2842 368.191 10.966C425.39 8.65828 486.303 14.9158 542.304 18.355C595.938 21.6459 650.151 24.5332 704.774 23.0258C755.871 21.6149 807.768 19.1415 858.865 21.8874C888.733 23.4949 914.476 27.6551 942.657 31.0736C970.317 34.4266 999.576 35.7168 1028.75 35.7271C1093.66 35.7547 1153.92 28.3726 1217.49 25.5853C1289.38 22.4324 1363.28 24.823 1433.81 18.4723" stroke="url(#paint54_linear_1_1308)" stroke-width="0.4" stroke-miterlimit="10"/>
<path d="M-4.10132 9.74805C67.9465 11.2452 127.812 27.5237 201.947 24.3915C259.335 21.9768 312.36 12.6629 369.869 10.5932C427.008 8.52345 487.312 14.7327 543.323 18.0512C596.847 21.211 650.79 23.774 705.093 21.7767C756.74 19.8795 809.306 18.0926 860.872 21.349C890.73 23.229 916.693 27.5996 945.083 30.9388C972.614 34.1745 1001.62 35.2335 1030.53 34.9989C1095.34 34.4781 1154.97 26.1508 1218.45 23.4291C1289.93 20.3658 1363.64 24.0431 1433.84 17.5648" stroke="url(#paint55_linear_1_1308)" stroke-width="0.4" stroke-miterlimit="10"/>
<path d="M-4.0813 8.50977C68.4159 10.0586 128.491 26.4476 203.115 23.4533C260.534 21.1456 313.958 12.1318 371.496 10.2587C428.515 8.40283 488.331 14.6017 544.311 17.796C597.736 20.8351 651.409 23.0773 705.403 20.6005C757.629 18.2065 810.843 17.0958 862.77 20.8523C892.598 23.0083 918.78 27.5859 947.42 30.8561C974.781 33.9607 1003.64 34.8162 1032.3 34.3436C1096.94 33.2846 1156.05 24.0536 1219.42 21.3905C1290.57 18.3997 1364.06 23.3533 1433.92 16.7474" stroke="url(#paint56_linear_1_1308)" stroke-width="0.4" stroke-miterlimit="10"/>
<path d="M-4.07129 7.35742C68.8254 8.95458 129.12 25.4608 204.223 22.5873C261.672 20.3865 315.396 11.6452 373.064 9.9791C429.983 8.3371 489.359 14.5256 545.25 17.6096C598.604 20.5589 652.009 22.4631 705.683 19.5172C758.518 16.6195 812.211 16.1711 864.587 20.4141C894.355 22.8288 920.788 27.6133 949.617 30.8076C976.838 33.8226 1005.54 34.4469 1033.9 33.7501C1098.31 32.1668 1157.01 22.0837 1220.26 19.4551C1291.16 16.5195 1364.35 22.7425 1433.9 15.9779" stroke="url(#paint57_linear_1_1308)" stroke-width="0.4" stroke-miterlimit="10"/>
<path d="M-4.0614 6.29834C69.2946 7.93344 129.749 24.55 205.272 21.7904C262.77 19.693 316.824 11.2105 374.552 9.74792C431.381 8.30944 490.298 14.498 546.139 17.4853C599.443 20.3381 652.588 21.9249 705.962 18.5202C759.336 15.1155 813.56 15.3155 866.345 20.0277C896.043 22.6804 922.735 27.6167 951.724 30.7972C978.685 33.7604 1007.42 34.133 1035.44 33.2119C1099.58 31.1422 1157.96 20.245 1221.08 17.6509C1291.67 14.7498 1364.65 22.2319 1433.9 15.2845" stroke="url(#paint58_linear_1_1308)" stroke-width="0.4" stroke-miterlimit="10"/>
<path d="M-4.00134 5.31201C69.7541 6.98161 130.338 23.7086 206.311 21.0559C263.789 19.0586 318.162 10.8313 375.96 9.55844C432.66 8.30969 491.197 14.5189 546.978 17.42C600.252 20.1797 653.147 21.4664 706.212 17.6132C760.275 13.691 814.818 14.5086 867.982 19.6829C897.62 22.5599 924.542 27.6825 953.701 30.8182C980.553 33.7055 1009.14 33.8711 1036.86 32.7637C1067.11 31.5529 1096.6 28.7795 1125.64 25.7025C1156.97 22.3874 1189.22 17.3303 1221.86 15.9919C1292.21 13.1046 1364.94 21.8286 1433.91 14.6742" stroke="url(#paint59_linear_1_1308)" stroke-width="0.4" stroke-miterlimit="10"/>
<path d="M-4.00134 4.44971C70.1136 6.1469 130.808 22.9808 207.219 20.4178C264.748 18.486 319.41 10.4865 377.278 9.4033C433.888 8.33048 492.006 14.5777 547.737 17.4063C601.011 20.1039 653.696 21.087 706.452 16.7992C761.104 12.3561 816.006 13.767 869.56 19.3898C899.068 22.4944 926.22 27.7723 955.528 30.8631C982.271 33.6814 1010.73 33.6607 1038.18 32.3637C1068.37 30.9424 1097.69 27.9275 1126.56 24.6539C1157.66 21.1284 1189.96 15.8092 1222.59 14.4604C1292.72 11.5662 1365.22 21.5148 1433.92 14.1154" stroke="url(#paint60_linear_1_1308)" stroke-width="0.4" stroke-miterlimit="10"/>
<path d="M-4.00134 3.6665C70.4531 5.39129 131.307 22.3253 208.048 19.8381C265.616 17.9684 320.539 10.2103 378.456 9.28241C434.986 8.37518 492.714 14.6948 548.406 17.451C601.69 20.083 654.186 20.7902 706.631 16.0712C761.913 11.1141 817.065 13.0804 870.998 19.1344C900.397 22.4322 927.748 27.8722 957.206 30.9285C983.838 33.6882 1012.13 33.495 1039.38 32.0289C1069.5 30.4076 1098.67 27.165 1127.38 23.712C1158.28 19.9968 1190.62 14.443 1223.25 13.0735C1293.15 10.1414 1365.48 21.3007 1433.95 13.6358" stroke="url(#paint61_linear_1_1308)" stroke-width="0.4" stroke-miterlimit="10"/>
<path d="M-4.00134 2.97998C70.7627 4.70477 131.716 21.756 208.787 19.3275C266.425 17.5096 321.627 9.96537 379.605 9.18922C436.075 8.43031 493.443 14.8431 549.075 17.5441C602.379 20.1278 654.725 20.5728 706.851 15.4502C762.702 9.96192 817.993 12.4456 872.306 18.8998C901.605 22.3873 929.136 27.9687 958.714 30.9974C985.256 33.7122 1013.45 33.3673 1040.44 31.746C1070.52 29.9384 1099.52 26.4888 1128.11 22.8702C1158.84 18.9757 1191.19 13.2321 1223.87 11.8316C1293.63 8.83736 1365.78 21.1799 1433.95 13.2114" stroke="url(#paint62_linear_1_1308)" stroke-width="0.4" stroke-miterlimit="10"/>
<path d="M-4.00134 2.39355C71.0523 4.11834 132.066 21.2765 209.436 18.886C267.084 17.106 322.536 9.76185 380.563 9.10643C436.974 8.48206 493.963 15.0087 549.594 17.6717C602.928 20.2244 655.174 20.4314 707.001 14.9121C763.431 8.89945 818.752 11.8523 873.465 18.7066C902.633 22.3631 930.324 28.0722 960.012 31.0802C986.475 33.764 1014.52 33.288 1041.33 31.5287C1071.36 29.5521 1100.24 25.9162 1128.71 22.1458C1159.3 18.0926 1191.62 12.2007 1224.39 10.7622C1294 7.67485 1366.06 21.1799 1433.96 12.8596" stroke="url(#paint63_linear_1_1308)" stroke-width="0.4" stroke-miterlimit="10"/>
<path d="M-4.00134 1.90381C70.6828 3.6286 131.497 20.7868 208.418 18.5618C269.201 16.806 327.958 8.8754 389.291 9.03753C441.727 9.17552 494.342 15.126 546.139 17.6856C601.171 20.4039 653.846 20.328 707.141 14.5086C766.237 8.07165 821.608 11.4557 878.567 19.1103C904.101 22.5392 928.427 27.2168 954.15 30.4284C981.372 33.8262 1011.26 33.495 1039.27 31.6081C1071.05 29.4694 1101.48 25.3989 1131.46 21.2594C1161.68 17.0716 1193.8 11.1763 1226.38 9.79644C1295.29 6.89535 1366.95 21.218 1433.95 12.5802" stroke="url(#paint64_linear_1_1308)" stroke-width="0.4" stroke-miterlimit="10"/>
<path d="M-4.00134 1.51758C70.8925 3.21822 131.706 20.4902 208.837 18.2618C269.641 16.5025 328.667 8.75824 389.98 9.01696C442.376 9.24118 494.722 15.3573 546.488 17.9203C601.56 20.6455 654.226 20.3764 707.26 14.1775C766.956 7.19558 822.038 10.9763 879.466 19.0069C904.88 22.56 929.276 27.279 955.069 30.494C982.231 33.8953 1011.99 33.4951 1039.84 31.5013C1071.6 29.228 1101.91 24.9816 1131.8 20.7317C1161.98 16.4404 1194.09 10.4796 1226.75 9.03076C1295.53 6.00203 1367.26 21.3975 1433.96 12.3423" stroke="url(#paint65_linear_1_1308)" stroke-width="0.4" stroke-miterlimit="10"/>
<path d="M-4.00134 1.2417C71.0423 2.91474 131.806 20.2903 209.156 18.0273C269.97 16.2474 329.126 8.66864 390.519 9.01014C442.895 9.29991 494.991 15.6126 546.738 18.1964C601.84 20.956 654.585 20.5179 707.28 13.9465C767.555 6.43331 822.197 10.5314 880.115 18.9001C905.469 22.5601 929.925 27.3274 955.738 30.5803C982.88 33.9989 1012.38 33.5677 1040.21 31.4807C1104.51 26.6513 1162.12 11.5318 1227.03 8.48236C1295.69 5.25701 1367.61 21.6908 1433.96 12.1803" stroke="url(#paint66_linear_1_1308)" stroke-width="0.4" stroke-miterlimit="10"/>
<path d="M-4.00134 1.06592C71.1621 2.70447 131.906 20.1835 209.346 17.8654C270.17 16.0405 329.526 8.61014 390.889 9.00684C443.275 9.3518 495.141 15.8853 546.868 18.5139C601.99 21.3149 654.915 20.7492 707.31 13.8224C768.114 5.78149 822.147 10.1176 880.615 18.8243C905.759 22.5602 930.274 27.5104 956.148 30.6357C983.629 33.9507 1012.24 33.6817 1040.37 31.5015C1104.78 26.5065 1162.07 11.3732 1227.21 8.10305C1295.78 4.65348 1368.01 22.0911 1433.92 12.077" stroke="url(#paint67_linear_1_1308)" stroke-width="0.4" stroke-miterlimit="10"/>
<path d="M-4.00134 1C71.242 2.59025 131.876 20.1727 209.396 17.7684C270.22 15.8815 329.656 8.57527 391.138 9.00302C443.534 9.36867 495.201 16.1781 546.918 18.8688C602.039 21.7354 655.244 21.0765 707.33 13.8014C768.603 5.23608 821.878 9.72743 880.904 18.7653C934.828 27.0167 979.255 36.4099 1040.32 31.5736C1104.9 26.4579 1161.92 11.4522 1227.29 7.91985C1295.78 4.21845 1368.39 22.5978 1434 12.0593" stroke="url(#paint68_linear_1_1308)" stroke-width="0.4" stroke-miterlimit="10"/>
<defs>
<linearGradient id="paint0_linear_1_1308" x1="1.03668e+06" y1="285.67" x2="1.03668e+06" y2="211.45" gradientUnits="userSpaceOnUse">
<stop stop-color="#592CB8"/>
<stop offset="1" stop-color="#2C66B8"/>
</linearGradient>
<linearGradient id="paint1_linear_1_1308" x1="1.03665e+06" y1="396.752" x2="1.03665e+06" y2="236.115" gradientUnits="userSpaceOnUse">
<stop stop-color="#592CB8"/>
<stop offset="1" stop-color="#2C66B8"/>
</linearGradient>
<linearGradient id="paint2_linear_1_1308" x1="1.03668e+06" y1="576.585" x2="1.03668e+06" y2="279.93" gradientUnits="userSpaceOnUse">
<stop stop-color="#592CB8"/>
<stop offset="1" stop-color="#2C66B8"/>
</linearGradient>
<linearGradient id="paint3_linear_1_1308" x1="1.03668e+06" y1="844.966" x2="1.03668e+06" y2="347.739" gradientUnits="userSpaceOnUse">
<stop stop-color="#592CB8"/>
<stop offset="1" stop-color="#2C66B8"/>
</linearGradient>
<linearGradient id="paint4_linear_1_1308" x1="1.03668e+06" y1="1290.65" x2="1.03668e+06" y2="462.679" gradientUnits="userSpaceOnUse">
<stop stop-color="#592CB8"/>
<stop offset="1" stop-color="#2C66B8"/>
</linearGradient>
<linearGradient id="paint5_linear_1_1308" x1="1.03668e+06" y1="1780.82" x2="1.03668e+06" y2="589.737" gradientUnits="userSpaceOnUse">
<stop stop-color="#592CB8"/>
<stop offset="1" stop-color="#2C66B8"/>
</linearGradient>
<linearGradient id="paint6_linear_1_1308" x1="1.03668e+06" y1="2377.41" x2="1.03668e+06" y2="745.077" gradientUnits="userSpaceOnUse">
<stop stop-color="#592CB8"/>
<stop offset="1" stop-color="#2C66B8"/>
</linearGradient>
<linearGradient id="paint7_linear_1_1308" x1="1.03666e+06" y1="3004.7" x2="1.03666e+06" y2="908.69" gradientUnits="userSpaceOnUse">
<stop stop-color="#592CB8"/>
<stop offset="1" stop-color="#2C66B8"/>
</linearGradient>
<linearGradient id="paint8_linear_1_1308" x1="1.03669e+06" y1="3633.87" x2="1.03669e+06" y2="1072.89" gradientUnits="userSpaceOnUse">
<stop stop-color="#592CB8"/>
<stop offset="1" stop-color="#2C66B8"/>
</linearGradient>
<linearGradient id="paint9_linear_1_1308" x1="1.03666e+06" y1="4231.93" x2="1.03666e+06" y2="1228.88" gradientUnits="userSpaceOnUse">
<stop stop-color="#592CB8"/>
<stop offset="1" stop-color="#2C66B8"/>
</linearGradient>
<linearGradient id="paint10_linear_1_1308" x1="1.03668e+06" y1="4825.2" x2="1.03668e+06" y2="1383.46" gradientUnits="userSpaceOnUse">
<stop stop-color="#592CB8"/>
<stop offset="1" stop-color="#2C66B8"/>
</linearGradient>
<linearGradient id="paint11_linear_1_1308" x1="1.03668e+06" y1="5280.81" x2="1.03668e+06" y2="1501.62" gradientUnits="userSpaceOnUse">
<stop stop-color="#592CB8"/>
<stop offset="1" stop-color="#2C66B8"/>
</linearGradient>
<linearGradient id="paint12_linear_1_1308" x1="1.03668e+06" y1="5618.27" x2="1.03668e+06" y2="1588.39" gradientUnits="userSpaceOnUse">
<stop stop-color="#592CB8"/>
<stop offset="1" stop-color="#2C66B8"/>
</linearGradient>
<linearGradient id="paint13_linear_1_1308" x1="1.03671e+06" y1="5798.26" x2="1.03671e+06" y2="1633.26" gradientUnits="userSpaceOnUse">
<stop stop-color="#592CB8"/>
<stop offset="1" stop-color="#2C66B8"/>
</linearGradient>
<linearGradient id="paint14_linear_1_1308" x1="1.03668e+06" y1="5877.97" x2="1.03668e+06" y2="1651.27" gradientUnits="userSpaceOnUse">
<stop stop-color="#592CB8"/>
<stop offset="1" stop-color="#2C66B8"/>
</linearGradient>
<linearGradient id="paint15_linear_1_1308" x1="1.03666e+06" y1="5958.77" x2="1.03666e+06" y2="1669.57" gradientUnits="userSpaceOnUse">
<stop stop-color="#592CB8"/>
<stop offset="1" stop-color="#2C66B8"/>
</linearGradient>
<linearGradient id="paint16_linear_1_1308" x1="1.03666e+06" y1="6004.34" x2="1.03666e+06" y2="1678.72" gradientUnits="userSpaceOnUse">
<stop stop-color="#592CB8"/>
<stop offset="1" stop-color="#2C66B8"/>
</linearGradient>
<linearGradient id="paint17_linear_1_1308" x1="1.0367e+06" y1="6017.2" x2="1.0367e+06" y2="1679.34" gradientUnits="userSpaceOnUse">
<stop stop-color="#592CB8"/>
<stop offset="1" stop-color="#2C66B8"/>
</linearGradient>
<linearGradient id="paint18_linear_1_1308" x1="1.03668e+06" y1="6001.42" x2="1.03668e+06" y2="1672.53" gradientUnits="userSpaceOnUse">
<stop stop-color="#592CB8"/>
<stop offset="1" stop-color="#2C66B8"/>
</linearGradient>
<linearGradient id="paint19_linear_1_1308" x1="1.03668e+06" y1="5959.68" x2="1.03668e+06" y2="1658.98" gradientUnits="userSpaceOnUse">
<stop stop-color="#592CB8"/>
<stop offset="1" stop-color="#2C66B8"/>
</linearGradient>
<linearGradient id="paint20_linear_1_1308" x1="1.03669e+06" y1="5864.33" x2="1.03669e+06" y2="1631.44" gradientUnits="userSpaceOnUse">
<stop stop-color="#592CB8"/>
<stop offset="1" stop-color="#2C66B8"/>
</linearGradient>
<linearGradient id="paint21_linear_1_1308" x1="1.03669e+06" y1="5800.43" x2="1.03669e+06" y2="1612.23" gradientUnits="userSpaceOnUse">
<stop stop-color="#592CB8"/>
<stop offset="1" stop-color="#2C66B8"/>
</linearGradient>
<linearGradient id="paint22_linear_1_1308" x1="1.03665e+06" y1="5723.28" x2="1.03665e+06" y2="1589.6" gradientUnits="userSpaceOnUse">
<stop stop-color="#592CB8"/>
<stop offset="1" stop-color="#2C66B8"/>
</linearGradient>
<linearGradient id="paint23_linear_1_1308" x1="1.03668e+06" y1="5641.4" x2="1.03668e+06" y2="1565.8" gradientUnits="userSpaceOnUse">
<stop stop-color="#592CB8"/>
<stop offset="1" stop-color="#2C66B8"/>
</linearGradient>
<linearGradient id="paint24_linear_1_1308" x1="1.03671e+06" y1="5554.82" x2="1.03671e+06" y2="1540.81" gradientUnits="userSpaceOnUse">
<stop stop-color="#592CB8"/>
<stop offset="1" stop-color="#2C66B8"/>
</linearGradient>
<linearGradient id="paint25_linear_1_1308" x1="1.03666e+06" y1="5467.11" x2="1.03666e+06" y2="1515.57" gradientUnits="userSpaceOnUse">
<stop stop-color="#592CB8"/>
<stop offset="1" stop-color="#2C66B8"/>
</linearGradient>
<linearGradient id="paint26_linear_1_1308" x1="1.03668e+06" y1="5352.9" x2="1.03668e+06" y2="1483.41" gradientUnits="userSpaceOnUse">
<stop stop-color="#592CB8"/>
<stop offset="1" stop-color="#2C66B8"/>
</linearGradient>
<linearGradient id="paint27_linear_1_1308" x1="1.03665e+06" y1="5271.17" x2="1.03665e+06" y2="1459.83" gradientUnits="userSpaceOnUse">
<stop stop-color="#592CB8"/>
<stop offset="1" stop-color="#2C66B8"/>
</linearGradient>
<linearGradient id="paint28_linear_1_1308" x1="1.03666e+06" y1="5198.32" x2="1.03666e+06" y2="1438.61" gradientUnits="userSpaceOnUse">
<stop stop-color="#592CB8"/>
<stop offset="1" stop-color="#2C66B8"/>
</linearGradient>
<linearGradient id="paint29_linear_1_1308" x1="1.03665e+06" y1="5141.07" x2="1.03665e+06" y2="1421.53" gradientUnits="userSpaceOnUse">
<stop stop-color="#592CB8"/>
<stop offset="1" stop-color="#2C66B8"/>
</linearGradient>
<linearGradient id="paint30_linear_1_1308" x1="1.03671e+06" y1="5091.68" x2="1.03671e+06" y2="1406.49" gradientUnits="userSpaceOnUse">
<stop stop-color="#592CB8"/>
<stop offset="1" stop-color="#2C66B8"/>
</linearGradient>
<linearGradient id="paint31_linear_1_1308" x1="1.03668e+06" y1="5067.19" x2="1.03668e+06" y2="1398.02" gradientUnits="userSpaceOnUse">
<stop stop-color="#592CB8"/>
<stop offset="1" stop-color="#2C66B8"/>
</linearGradient>
<linearGradient id="paint32_linear_1_1308" x1="1.03668e+06" y1="5055.44" x2="1.03668e+06" y2="1392.9" gradientUnits="userSpaceOnUse">
<stop stop-color="#592CB8"/>
<stop offset="1" stop-color="#2C66B8"/>
</linearGradient>
<linearGradient id="paint33_linear_1_1308" x1="1.0367e+06" y1="5023.09" x2="1.0367e+06" y2="1382.33" gradientUnits="userSpaceOnUse">
<stop stop-color="#592CB8"/>
<stop offset="1" stop-color="#2C66B8"/>
</linearGradient>
<linearGradient id="paint34_linear_1_1308" x1="1.03668e+06" y1="4974.48" x2="1.03668e+06" y2="1367.47" gradientUnits="userSpaceOnUse">
<stop stop-color="#592CB8"/>
<stop offset="1" stop-color="#2C66B8"/>
</linearGradient>
<linearGradient id="paint35_linear_1_1308" x1="1.0367e+06" y1="4903.56" x2="1.0367e+06" y2="1346.7" gradientUnits="userSpaceOnUse">
<stop stop-color="#592CB8"/>
<stop offset="1" stop-color="#2C66B8"/>
</linearGradient>
<linearGradient id="paint36_linear_1_1308" x1="1.03668e+06" y1="4818.62" x2="1.03668e+06" y2="1322.25" gradientUnits="userSpaceOnUse">
<stop stop-color="#592CB8"/>
<stop offset="1" stop-color="#2C66B8"/>
</linearGradient>
<linearGradient id="paint37_linear_1_1308" x1="1.0367e+06" y1="4717.08" x2="1.0367e+06" y2="1293.41" gradientUnits="userSpaceOnUse">
<stop stop-color="#592CB8"/>
<stop offset="1" stop-color="#2C66B8"/>
</linearGradient>
<linearGradient id="paint38_linear_1_1308" x1="1.03667e+06" y1="4603.87" x2="1.03667e+06" y2="1261.52" gradientUnits="userSpaceOnUse">
<stop stop-color="#592CB8"/>
<stop offset="1" stop-color="#2C66B8"/>
</linearGradient>
<linearGradient id="paint39_linear_1_1308" x1="1.03668e+06" y1="4475.68" x2="1.03668e+06" y2="1225.68" gradientUnits="userSpaceOnUse">
<stop stop-color="#592CB8"/>
<stop offset="1" stop-color="#2C66B8"/>
</linearGradient>
<linearGradient id="paint40_linear_1_1308" x1="1.03667e+06" y1="4333.4" x2="1.03667e+06" y2="1186.12" gradientUnits="userSpaceOnUse">
<stop stop-color="#592CB8"/>
<stop offset="1" stop-color="#2C66B8"/>
</linearGradient>
<linearGradient id="paint41_linear_1_1308" x1="1.03668e+06" y1="4186.66" x2="1.03668e+06" y2="1145.45" gradientUnits="userSpaceOnUse">
<stop stop-color="#592CB8"/>
<stop offset="1" stop-color="#2C66B8"/>
</linearGradient>
<linearGradient id="paint42_linear_1_1308" x1="1.03668e+06" y1="4028.06" x2="1.03668e+06" y2="1101.65" gradientUnits="userSpaceOnUse">
<stop stop-color="#592CB8"/>
<stop offset="1" stop-color="#2C66B8"/>
</linearGradient>
<linearGradient id="paint43_linear_1_1308" x1="1.03668e+06" y1="3868.24" x2="1.03668e+06" y2="1057.61" gradientUnits="userSpaceOnUse">
<stop stop-color="#592CB8"/>
<stop offset="1" stop-color="#2C66B8"/>
</linearGradient>
<linearGradient id="paint44_linear_1_1308" x1="1.03668e+06" y1="3700.07" x2="1.03668e+06" y2="1011.39" gradientUnits="userSpaceOnUse">
<stop stop-color="#592CB8"/>
<stop offset="1" stop-color="#2C66B8"/>
</linearGradient>
<linearGradient id="paint45_linear_1_1308" x1="1.03668e+06" y1="3532.66" x2="1.03668e+06" y2="965.443" gradientUnits="userSpaceOnUse">
<stop stop-color="#592CB8"/>
<stop offset="1" stop-color="#2C66B8"/>
</linearGradient>
<linearGradient id="paint46_linear_1_1308" x1="1.03663e+06" y1="3368.77" x2="1.03663e+06" y2="920.522" gradientUnits="userSpaceOnUse">
<stop stop-color="#592CB8"/>
<stop offset="1" stop-color="#2C66B8"/>
</linearGradient>
<linearGradient id="paint47_linear_1_1308" x1="1.03672e+06" y1="3193.24" x2="1.03672e+06" y2="872.531" gradientUnits="userSpaceOnUse">
<stop stop-color="#592CB8"/>
<stop offset="1" stop-color="#2C66B8"/>
</linearGradient>
<linearGradient id="paint48_linear_1_1308" x1="1.03668e+06" y1="3085.02" x2="1.03668e+06" y2="842.752" gradientUnits="userSpaceOnUse">
<stop stop-color="#592CB8"/>
<stop offset="1" stop-color="#2C66B8"/>
</linearGradient>
<linearGradient id="paint49_linear_1_1308" x1="1.03668e+06" y1="2951.67" x2="1.03668e+06" y2="806.256" gradientUnits="userSpaceOnUse">
<stop stop-color="#592CB8"/>
<stop offset="1" stop-color="#2C66B8"/>
</linearGradient>
<linearGradient id="paint50_linear_1_1308" x1="1.0367e+06" y1="2845.66" x2="1.0367e+06" y2="777.218" gradientUnits="userSpaceOnUse">
<stop stop-color="#592CB8"/>
<stop offset="1" stop-color="#2C66B8"/>
</linearGradient>
<linearGradient id="paint51_linear_1_1308" x1="1.03668e+06" y1="2759.91" x2="1.03668e+06" y2="753.686" gradientUnits="userSpaceOnUse">
<stop stop-color="#592CB8"/>
<stop offset="1" stop-color="#2C66B8"/>
</linearGradient>
<linearGradient id="paint52_linear_1_1308" x1="1.03664e+06" y1="2688.61" x2="1.03664e+06" y2="734.089" gradientUnits="userSpaceOnUse">
<stop stop-color="#592CB8"/>
<stop offset="1" stop-color="#2C66B8"/>
</linearGradient>
<linearGradient id="paint53_linear_1_1308" x1="1.03666e+06" y1="2627.97" x2="1.03666e+06" y2="717.427" gradientUnits="userSpaceOnUse">
<stop stop-color="#592CB8"/>
<stop offset="1" stop-color="#2C66B8"/>
</linearGradient>
<linearGradient id="paint54_linear_1_1308" x1="1.03665e+06" y1="2578.64" x2="1.03665e+06" y2="703.851" gradientUnits="userSpaceOnUse">
<stop stop-color="#592CB8"/>
<stop offset="1" stop-color="#2C66B8"/>
</linearGradient>
<linearGradient id="paint55_linear_1_1308" x1="1.03667e+06" y1="2580.19" x2="1.03667e+06" y2="703.743" gradientUnits="userSpaceOnUse">
<stop stop-color="#592CB8"/>
<stop offset="1" stop-color="#2C66B8"/>
</linearGradient>
<linearGradient id="paint56_linear_1_1308" x1="1.03671e+06" y1="2647.38" x2="1.03671e+06" y2="720.981" gradientUnits="userSpaceOnUse">
<stop stop-color="#592CB8"/>
<stop offset="1" stop-color="#2C66B8"/>
</linearGradient>
<linearGradient id="paint57_linear_1_1308" x1="1.03669e+06" y1="2717" x2="1.03669e+06" y2="738.936" gradientUnits="userSpaceOnUse">
<stop stop-color="#592CB8"/>
<stop offset="1" stop-color="#2C66B8"/>
</linearGradient>
<linearGradient id="paint58_linear_1_1308" x1="1.03668e+06" y1="2787.85" x2="1.03668e+06" y2="757.291" gradientUnits="userSpaceOnUse">
<stop stop-color="#592CB8"/>
<stop offset="1" stop-color="#2C66B8"/>
</linearGradient>
<linearGradient id="paint59_linear_1_1308" x1="1.03664e+06" y1="2860.73" x2="1.03664e+06" y2="776.249" gradientUnits="userSpaceOnUse">
<stop stop-color="#592CB8"/>
<stop offset="1" stop-color="#2C66B8"/>
</linearGradient>
<linearGradient id="paint60_linear_1_1308" x1="1.03665e+06" y1="2928.28" x2="1.03665e+06" y2="793.857" gradientUnits="userSpaceOnUse">
<stop stop-color="#592CB8"/>
<stop offset="1" stop-color="#2C66B8"/>
</linearGradient>
<linearGradient id="paint61_linear_1_1308" x1="1.03667e+06" y1="2994.33" x2="1.03667e+06" y2="811.119" gradientUnits="userSpaceOnUse">
<stop stop-color="#592CB8"/>
<stop offset="1" stop-color="#2C66B8"/>
</linearGradient>
<linearGradient id="paint62_linear_1_1308" x1="1.03667e+06" y1="3055.25" x2="1.03667e+06" y2="827.065" gradientUnits="userSpaceOnUse">
<stop stop-color="#592CB8"/>
<stop offset="1" stop-color="#2C66B8"/>
</linearGradient>
<linearGradient id="paint63_linear_1_1308" x1="1.03668e+06" y1="3111.16" x2="1.03668e+06" y2="841.734" gradientUnits="userSpaceOnUse">
<stop stop-color="#592CB8"/>
<stop offset="1" stop-color="#2C66B8"/>
</linearGradient>
<linearGradient id="paint64_linear_1_1308" x1="1.03667e+06" y1="3164.77" x2="1.03667e+06" y2="855.849" gradientUnits="userSpaceOnUse">
<stop stop-color="#592CB8"/>
<stop offset="1" stop-color="#2C66B8"/>
</linearGradient>
<linearGradient id="paint65_linear_1_1308" x1="1.03668e+06" y1="3205.11" x2="1.03668e+06" y2="866.459" gradientUnits="userSpaceOnUse">
<stop stop-color="#592CB8"/>
<stop offset="1" stop-color="#2C66B8"/>
</linearGradient>
<linearGradient id="paint66_linear_1_1308" x1="1.03668e+06" y1="3240.16" x2="1.03668e+06" y2="875.72" gradientUnits="userSpaceOnUse">
<stop stop-color="#592CB8"/>
<stop offset="1" stop-color="#2C66B8"/>
</linearGradient>
<linearGradient id="paint67_linear_1_1308" x1="1.03665e+06" y1="3261.57" x2="1.03665e+06" y2="881.373" gradientUnits="userSpaceOnUse">
<stop stop-color="#592CB8"/>
<stop offset="1" stop-color="#2C66B8"/>
</linearGradient>
<linearGradient id="paint68_linear_1_1308" x1="1.03671e+06" y1="3243.73" x2="1.03671e+06" y2="876.509" gradientUnits="userSpaceOnUse">
<stop stop-color="#592CB8"/>
<stop offset="1" stop-color="#2C66B8"/>
</linearGradient>
</defs>
</svg>
