<svg width="253" height="77" viewBox="0 0 253 77" fill="none" xmlns="http://www.w3.org/2000/svg">
<g clip-path="url(#clip0_4_109)">
<path d="M39.9241 74.4555C55.2046 74.4555 67.5918 61.5117 67.5918 45.5447C67.5918 29.5776 55.2046 16.6338 39.9241 16.6338C24.6437 16.6338 12.2565 29.5776 12.2565 45.5447C12.2565 61.5117 24.6437 74.4555 39.9241 74.4555Z" fill="white" fill-opacity="0.05"/>
<path d="M61.8006 43.4999C62.0041 39.4182 59.0509 36.7106 55.7178 34.8516L53.5515 47.1369C55.0513 47.0561 55.7846 47.6058 56.0512 47.8643C56.3844 48.1877 57.2177 49.1575 56.2178 50.6932C58.301 50.3699 61.5546 48.4301 61.8006 43.4999Z" fill="white"/>
<path fill-rule="evenodd" clip-rule="evenodd" d="M34.6298 28.8184L32.2089 26.2628C35.8534 25.7957 45.4701 26.3947 54.7794 32.528C54.9356 33.1874 54.7794 34.1767 54.7794 34.1767L55.5604 34.589C56.2372 35.6057 57.388 38.4966 56.5757 41.9259C55.7635 45.3552 54.3629 46.8172 53.7641 47.1194C52.5145 47.1194 50.3903 47.8779 49.7031 51.2413C49.0157 54.6047 47.6985 55.3357 47.1257 55.2807L33.3803 55.4456L24.3208 49.8399L22.9932 38.2163L25.5705 34.589L30.1783 30.632L33.4584 29.2306L34.6298 28.8184ZM50.8642 33.62C50.258 34.2832 49.6913 34.6014 49.5294 34.6876C45.9901 33.8968 44.715 31.9734 44.715 31.9734C48.0535 31.9519 51.0666 32.7859 53.2712 34.1968C53.2712 34.1968 52.0779 33.7906 50.8642 33.62Z" fill="white"/>
<path fill-rule="evenodd" clip-rule="evenodd" d="M50.1114 51.5215C47.677 52.7571 44.7909 53.4724 41.6963 53.4724C32.9976 53.4724 25.9459 47.8209 25.9459 40.8495C25.9459 35.6998 29.7938 31.2702 35.3112 29.307C24.8181 29.9321 16.386 38.65 16.386 49.4069C16.386 61.8215 27.0863 72.0793 40.2857 72.0793C50.1421 72.0793 58.3465 66.1694 62.6364 58.2622C56.7338 59.635 49.7462 57.0249 50.1114 51.5215Z" fill="white"/>
<path fill-rule="evenodd" clip-rule="evenodd" d="M133.866 34.2971C132.212 32.4856 129.676 31.4154 126.442 31.4154H114.974V60.2329H119.495L119.494 51.358L119.49 51.3602V44.9339L119.494 44.9344L119.495 36.0261H126.074C129.416 36.0261 131.358 37.6344 131.403 40.6918L131.404 40.8839L131.401 41.0842C131.31 43.9313 129.272 45.7006 126.111 45.7006L124.165 45.6996L121.837 50.1872L125.155 50.1879L131.477 60.2329H136.844L129.896 49.3233L130.128 49.2458C133.533 48.0595 135.944 45.2896 135.998 40.7495L135.999 40.5135C135.999 38.0023 135.226 35.9027 133.866 34.2971ZM192.772 35.2638C190.13 32.7933 187.342 31.4163 182.902 31.4163C175.21 31.4163 169.779 37.9941 169.662 45.819L169.659 46.1583C169.659 54.4204 174.943 60.7386 182.977 60.7386C187.526 60.7386 191.121 58.7136 193.688 56.324V44.4169L189.323 48.7909V54.0559C187.746 55.352 185.582 56.2025 183.124 56.2025C177.955 56.2025 174.496 52.0348 174.395 46.3337L174.392 45.9964C174.392 40.5694 178.025 36.0333 182.72 36.0333C185.948 36.0333 187.93 37.1674 189.91 39.0303L192.772 35.2638ZM225.347 45.9964C225.347 38.0178 219.845 31.4163 211.956 31.4163C204.154 31.4163 198.613 37.9956 198.494 45.8217L198.493 46.1583C198.493 54.137 203.997 60.7386 211.883 60.7386C219.686 60.7386 225.226 54.1592 225.344 46.333L225.347 45.9964ZM109.531 60.2525L98.2318 31.6997H94.0497L82.7505 60.2525L87.2619 60.2523L96.0673 37.6533L104.938 60.2523L109.531 60.2525ZM167.729 60.2525L156.43 31.6997H152.248L140.948 60.2525L145.46 60.2523L154.266 37.6533L163.136 60.2523L167.729 60.2525ZM248.155 51.5043L234.398 31.9022H230.215V60.2525H234.654V40.0834L248.815 60.2525H252.594V31.9022H248.155V51.5043ZM203.226 45.9964C203.226 40.4883 206.784 36.0333 211.883 36.0333C216.944 36.0333 220.508 40.4369 220.611 45.835L220.614 46.1583C220.614 51.6664 217.056 56.1215 211.956 56.1215C206.896 56.1215 203.332 51.7179 203.227 46.3198L203.226 45.9964Z" fill="white"/>
</g>
<defs>
<clipPath id="clip0_4_109">
<rect width="251.9" height="75.2475" fill="white" transform="translate(0.693848 0.792175)"/>
</clipPath>
</defs>
</svg>
