<svg width="210" height="80" viewBox="0 0 210 80" fill="none" xmlns="http://www.w3.org/2000/svg">
<g clip-path="url(#clip0_4_115)">
<path d="M15.1644 55.3514C6.83072 55.3514 0.79599 51.4595 0.79599 44.5405C0.79599 37.6216 7.40546 33.5135 15.4518 33.5135C23.4981 33.5135 29.8202 37.4054 29.8202 44.3243C29.8202 51.2433 23.2107 55.3514 15.1644 55.3514ZM15.1644 38.7027C11.4286 38.7027 9.41703 40.8649 9.41703 44.5405C9.41703 48 11.4286 50.1622 15.1644 50.1622C18.9002 50.1622 20.9118 48 20.9118 44.5405C20.9118 40.8649 18.9002 38.7027 15.1644 38.7027Z" fill="white"/>
<path d="M67.178 42.5946C67.178 40.2162 65.7412 39.3514 63.4422 39.3514C61.718 39.3514 60.2812 40 59.1317 40.6487V54.7027H50.2233V42.5946C50.2233 40.2162 48.7865 39.3514 46.4875 39.3514C44.7633 39.3514 43.3265 39.7838 42.177 40.6487V54.7027H33.2686V33.946H42.177V36.5405C44.4759 34.5946 47.3496 33.5135 50.798 33.5135C54.2465 33.5135 57.1201 34.8108 58.557 37.1892C61.1433 35.027 64.3043 33.5135 68.0401 33.5135C73.2128 33.5135 76.6612 36.1081 76.6612 40.6487V54.7027H67.7528L67.178 42.5946Z" fill="white"/>
<path d="M85.2822 31.3514C82.1212 31.3514 80.1096 30.0541 80.1096 27.6757C80.1096 25.2973 82.1212 24 85.2822 24C88.7306 24 90.4548 25.2973 90.4548 27.6757C90.7422 30.0541 88.7306 31.3514 85.2822 31.3514ZM80.6843 33.9459H89.5927V54.7027H80.6843V33.9459Z" fill="white"/>
<path d="M104.249 55.3514C100.513 55.3514 95.6275 54.7027 92.7538 53.6216L94.478 48.8649C97.639 50.1622 101.087 50.8108 104.536 50.8108C107.122 50.8108 108.272 50.1622 108.272 49.0811C108.272 48 106.835 47.5676 103.674 46.9189C97.3517 46.0541 93.3285 44.3243 93.3285 40.2162C93.3285 36.3243 97.639 33.7297 105.398 33.7297C109.134 33.7297 113.732 34.5946 116.318 35.4595L114.594 40.2162C111.433 39.1351 107.697 38.4865 105.111 38.4865C102.812 38.4865 101.662 38.9189 101.662 40C101.662 41.0811 103.386 41.5135 106.26 41.946C112.582 43.027 116.605 44.5405 116.605 48.6487C116.605 52.3243 112.295 55.3514 104.249 55.3514Z" fill="white"/>
<path d="M134.422 50.3784C137.296 50.3784 140.457 49.5135 143.331 48.4324L144.193 53.6216C141.319 54.7027 137.583 55.3514 133.56 55.3514C124.364 55.3514 118.33 51.4595 118.33 44.7568C118.33 38.0541 124.364 33.7297 132.985 33.7297C140.744 33.7297 145.055 37.1892 145.055 42.1622C145.055 43.2432 144.767 44.973 144.48 45.8378L127.238 46.0541C127.525 48.8649 129.824 50.3784 134.422 50.3784ZM136.721 42.1622C136.721 39.7838 135.284 38.2703 132.698 38.2703C129.537 38.2703 127.813 40.2162 127.525 42.5946H137.008V42.1622H136.721Z" fill="white"/>
<path d="M161.722 56.8649C153.676 56.8649 147.354 61.6216 147.354 67.6757C147.354 73.7297 153.963 78.4865 161.722 78.4865C169.768 78.4865 176.091 73.7297 176.091 67.6757C176.378 61.6216 169.768 56.8649 161.722 56.8649ZM161.722 75.2433C156.262 75.2433 151.664 71.7838 151.664 67.6757C151.664 63.5676 156.262 60.1081 161.722 60.1081C167.182 60.1081 171.78 63.5676 171.78 67.6757C172.067 71.7838 167.47 75.2433 161.722 75.2433Z" fill="white"/>
<path d="M192.758 33.5135C184.712 33.5135 178.389 38.2703 178.389 44.3243C178.389 50.3784 184.999 55.1351 192.758 55.1351C200.804 55.1351 207.126 50.3784 207.126 44.3243C207.126 38.4865 200.804 33.5135 192.758 33.5135ZM192.758 52.1081C187.298 52.1081 182.7 48.6487 182.7 44.5405C182.7 40.4324 187.298 36.973 192.758 36.973C198.218 36.973 202.816 40.4324 202.816 44.5405C202.816 48.6487 198.218 52.1081 192.758 52.1081Z" fill="white"/>
<path d="M161.722 33.5135C153.676 33.5135 147.354 38.2703 147.354 44.3243C147.354 50.3784 153.963 55.1351 161.722 55.1351C169.768 55.1351 176.091 50.3784 176.091 44.3243C176.091 41.5135 174.654 38.7027 172.067 36.7568H176.091V33.5135H161.722ZM172.067 44.5405C172.067 48.6487 167.469 52.1081 162.01 52.1081C156.55 52.1081 151.952 48.6487 151.952 44.5405C151.952 40.4324 156.55 36.973 162.01 36.973C167.469 36.973 172.067 40.2162 172.067 44.5405Z" fill="white"/>
</g>
<defs>
<clipPath id="clip0_4_115">
<rect width="209.779" height="80" fill="white" transform="translate(0.221252)"/>
</clipPath>
</defs>
</svg>
