<svg width="149" height="35" viewBox="0 0 149 35" fill="none" xmlns="http://www.w3.org/2000/svg">
<g clip-path="url(#clip0_4_95)">
<path d="M91.6836 32.0052L77.2844 3.70349C77.1706 3.44566 77.1101 3.17437 77.1055 2.9006C77.0774 2.32238 77.3293 1.75819 77.8075 1.32827C78.0548 1.12298 78.3536 0.963002 78.6837 0.859129C79.0137 0.755256 79.3674 0.709897 79.721 0.726109C80.2559 0.732241 80.7753 0.872487 81.2078 1.12755C81.6578 1.40073 82.0096 1.7665 82.2263 2.18692L95.9235 29.8753L109.621 2.18692C109.841 1.76518 110.198 1.39928 110.653 1.12755C111.086 0.872487 111.605 0.732241 112.14 0.726109C112.491 0.71151 112.842 0.757657 113.17 0.861483C113.497 0.965308 113.794 1.12443 114.04 1.32827C114.523 1.75645 114.78 2.32085 114.755 2.9006C114.751 3.17437 114.69 3.44566 114.577 3.70349L100.177 32.0052C99.9308 32.627 99.4506 33.1707 98.804 33.5605C98.1573 33.9504 97.3765 34.1669 96.5706 34.1797H95.2903C94.4843 34.1669 93.7036 33.9504 93.0569 33.5605C92.4103 33.1707 91.9302 32.627 91.6836 32.0052Z" fill="white"/>
<path d="M120.881 33.3098C120.637 33.111 120.445 32.874 120.317 32.6133C120.19 32.3526 120.129 32.0737 120.138 31.7933V3.13471C120.129 2.84769 120.19 2.56209 120.318 2.29421C120.445 2.02634 120.637 1.78146 120.881 1.57354C121.121 1.36797 121.412 1.206 121.734 1.09835C122.057 0.99069 122.404 0.939809 122.753 0.949069H146.156C146.485 0.942566 146.813 0.99289 147.116 1.0967C147.42 1.20052 147.693 1.35545 147.918 1.55123C148.157 1.73462 148.346 1.95613 148.474 2.20181C148.602 2.44749 148.666 2.71197 148.661 2.97858C148.67 3.24247 148.609 3.50485 148.48 3.7475C148.352 3.99014 148.16 4.20722 147.918 4.38364C147.684 4.57087 147.406 4.71857 147.102 4.81812C146.797 4.91768 146.47 4.96709 146.142 4.96351H125.451V15.401H144.063C144.393 15.3946 144.72 15.4448 145.024 15.5487C145.328 15.6525 145.601 15.8074 145.825 16.0032C146.061 16.1882 146.249 16.41 146.377 16.6553C146.505 16.9006 146.57 17.1643 146.569 17.4306C146.578 17.6944 146.516 17.9568 146.388 18.1995C146.26 18.4421 146.068 18.6592 145.825 18.8356C145.593 19.0215 145.318 19.1684 145.016 19.268C144.713 19.3675 144.389 19.4176 144.063 19.4154H125.451V29.8976H146.142C146.474 29.8895 146.804 29.939 147.11 30.0429C147.416 30.1468 147.692 30.3025 147.918 30.4998C148.158 30.6845 148.349 30.9078 148.477 31.1555C148.605 31.4031 148.667 31.6698 148.661 31.9383C148.67 32.2022 148.609 32.4646 148.48 32.7072C148.352 32.9498 148.16 33.1669 147.918 33.3433C147.683 33.5285 147.405 33.6741 147.1 33.7718C146.795 33.8695 146.469 33.9171 146.142 33.9121H122.753C122.405 33.9325 122.056 33.8891 121.732 33.7847C121.408 33.6805 121.117 33.5181 120.881 33.3098Z" fill="white"/>
<path d="M80.5466 31.2024L66.1336 2.90066C65.8879 2.28074 65.4098 1.73825 64.7659 1.34856C64.122 0.958861 63.3443 0.741321 62.5408 0.726166H61.2743C60.4684 0.739025 59.6875 0.955508 59.0409 1.34537C58.3943 1.73522 57.9141 2.27898 57.6675 2.90066L51.404 15.2339H46.6548C45.9719 15.2397 45.3193 15.4628 44.8377 15.855C44.356 16.2473 44.084 16.7772 44.0806 17.3303V17.3526C44.084 17.9057 44.356 18.4357 44.8377 18.8279C45.3193 19.2201 45.9719 19.4432 46.6548 19.449H49.2014L43.227 31.2024C43.1132 31.4603 43.0527 31.7316 43.048 32.0052C43.0201 32.5835 43.2719 33.1477 43.7502 33.5776C43.9974 33.7829 44.2962 33.9429 44.6262 34.0467C44.9563 34.1506 45.3101 34.196 45.6636 34.1798C46.1985 34.1736 46.7179 34.0334 47.1503 33.7784C47.6005 33.5052 47.9522 33.1394 48.1691 32.719L54.7629 19.449H59.292C59.9748 19.4432 60.6275 19.2201 61.1091 18.8279C61.5907 18.4357 61.8626 17.9057 61.8662 17.3526V17.2968C61.8626 16.7437 61.5907 16.2138 61.1091 15.8216C60.6275 15.4294 59.9748 15.2063 59.292 15.2005H56.8416L61.9075 5.03054L75.6047 32.719C75.8216 33.1394 76.1732 33.5052 76.6233 33.7784C77.0558 34.0334 77.5752 34.1736 78.1101 34.1798C78.4659 34.1976 78.8223 34.1531 79.1549 34.0492C79.4875 33.9452 79.7884 33.7844 80.0373 33.5776C80.5104 33.146 80.7574 32.5819 80.7256 32.0052C80.743 31.7312 80.6866 31.4573 80.5604 31.2024H80.5466Z" fill="white"/>
<path d="M37.5145 31.2024L23.1153 2.90066C22.868 2.2772 22.3857 1.73218 21.7363 1.34216C21.087 0.952137 20.303 0.736718 19.4947 0.726166H18.2284C17.4224 0.739025 16.6416 0.955508 15.995 1.34537C15.3482 1.73522 14.8681 2.27898 14.6216 2.90066L8.35807 15.2339H3.60879C2.92592 15.2397 2.27327 15.4628 1.79166 15.855C1.31006 16.2473 1.03813 16.7772 1.03456 17.3303V17.3526C1.03813 17.9057 1.31006 18.4357 1.79166 18.8279C2.27327 19.2201 2.92592 19.4432 3.60879 19.449H6.15551L0.181066 31.2024C0.0672517 31.4603 0.00678551 31.7316 0.00210722 32.0052C-0.025892 32.5835 0.226032 33.1477 0.704173 33.5776C0.951482 33.7829 1.25024 33.9429 1.58031 34.0467C1.91038 34.1506 2.26411 34.196 2.61765 34.1798C3.15254 34.1736 3.67192 34.0334 4.10438 33.7784C4.55453 33.5052 4.90625 33.1394 5.12306 32.719L11.717 19.449H16.2735C16.9587 19.4461 17.615 19.2243 18.0995 18.8318C18.5841 18.4393 18.8579 17.9077 18.8615 17.3526V17.2968C18.8579 16.7418 18.5841 16.2102 18.0995 15.8177C17.615 15.4251 16.9587 15.2034 16.2735 15.2005H13.8369L18.8615 5.03054L32.5586 32.719C32.7755 33.1394 33.1273 33.5052 33.5774 33.7784C34.0098 34.0334 34.5292 34.1736 35.0641 34.1798C35.4199 34.1976 35.7764 34.1531 36.109 34.0492C36.4416 33.9452 36.7425 33.7844 36.9913 33.5776C37.4645 33.146 37.7114 32.5819 37.6797 32.0052C37.6969 31.7312 37.6406 31.4573 37.5145 31.2024Z" fill="white"/>
</g>
<defs>
<clipPath id="clip0_4_95">
<rect width="148.662" height="34.0594" fill="white" transform="translate(0 0.7229)"/>
</clipPath>
</defs>
</svg>
