<svg width="198" height="47" viewBox="0 0 198 47" fill="none" xmlns="http://www.w3.org/2000/svg">
<g clip-path="url(#clip0_4_100)">
<path fill-rule="evenodd" clip-rule="evenodd" d="M56.5773 15.2624H62.9816L69.7308 38.43L76.48 15.2624H82.7366L73.1793 44.9891H66.1345L56.5773 15.2624Z" fill="white"/>
<path fill-rule="evenodd" clip-rule="evenodd" d="M103.749 30.5629C103.749 25.4431 100.887 21.7945 96.5921 21.7945C92.2978 21.7945 89.3857 25.4431 89.3857 30.5629C89.3857 35.6827 92.2978 39.3313 96.5921 39.3313C100.887 39.3313 103.749 35.6827 103.749 30.5629ZM83.4632 30.8571C83.4632 21.6179 88.8922 15.2624 96.6419 15.2624C104.292 15.2624 109.623 21.4408 109.623 30.7982V45.0983H104.243V39.3901C102.762 43.6866 99.4549 45.8633 95.6049 45.8633C89.6819 45.8633 83.4632 40.8024 83.4632 30.8571Z" fill="white"/>
<path fill-rule="evenodd" clip-rule="evenodd" d="M113.983 29.4772C113.983 19.5183 118.944 14.3879 126.336 14.3879C133.727 14.3879 138.689 19.4579 138.689 29.4772V44.9889H132.664V29.4772C132.664 23.8037 130.133 21.0876 126.336 21.0876C122.539 21.0876 120.007 23.8037 120.007 29.4772V44.9889H113.983V29.4772Z" fill="white"/>
<path fill-rule="evenodd" clip-rule="evenodd" d="M142.321 33.6322V4.77066H148.316V15.3154H161.158V21.8226H148.316V33.6322C148.316 37.6093 150.027 39.1754 152.495 39.1754C154.962 39.1754 156.675 37.6691 156.675 33.6322V32.8489H162.668V33.6322C162.668 41.8867 158.539 45.8635 152.495 45.8635C146.452 45.8635 142.321 41.8867 142.321 33.6322Z" fill="white"/>
<path fill-rule="evenodd" clip-rule="evenodd" d="M168.845 10.8906C171.171 10.8906 172.841 8.89399 172.841 6.11213C172.841 3.32917 171.171 1.27316 168.845 1.27316C166.517 1.27316 164.848 3.32917 164.848 6.11213C164.848 8.89399 166.517 10.8906 168.845 10.8906Z" fill="white"/>
<path fill-rule="evenodd" clip-rule="evenodd" d="M165.574 44.9891H171.387V15.2624H165.574V44.9891Z" fill="white"/>
<path fill-rule="evenodd" clip-rule="evenodd" d="M176.197 36.3718H182.241C182.292 38.3417 183.753 39.6551 186.674 39.6551C189.747 39.6551 191.057 38.1627 191.057 36.3718C191.057 34.1034 188.841 33.805 186.171 33.3871C182.341 32.7902 176.7 32.0141 176.7 24.7911C176.7 18.7613 180.579 14.8221 186.574 14.8221C192.669 14.8221 196.396 18.8812 196.548 24.0747H190.604C190.453 22.2839 189.041 21.0302 186.674 21.0302C184.055 21.0302 182.744 22.5226 182.744 24.2537C182.744 26.5222 185.013 26.8804 187.682 27.2982C191.007 27.8354 197.102 28.6115 197.102 35.954C197.102 41.9233 193.022 45.8632 186.674 45.8632C180.328 45.8632 176.347 41.8636 176.197 36.3718Z" fill="white"/>
<path fill-rule="evenodd" clip-rule="evenodd" d="M42.7386 14.6787C40.3303 14.6787 38.1408 15.2979 36.2604 16.4109C35.2506 17.009 34.3296 17.7486 33.5131 18.6143C33.0908 19.0624 32.6975 19.545 32.3324 20.0566L21.1289 33.8873C21.1289 33.8873 17.3224 39.0937 14.0252 39.0937C9.64112 39.0937 6.66851 35.3895 6.66988 30.1955C6.66988 29.7358 6.70836 29.2871 6.76561 28.8447C7.30554 24.6548 10.2933 21.3346 13.9615 21.3048C16.6053 21.2836 18.7596 22.5839 20.062 24.7341L24.136 19.7565C21.8012 16.596 18.2737 14.6787 14.0252 14.6787C6.1666 14.6787 0.625305 21.2456 0.625305 30.1998C0.625305 35.0639 2.26342 39.2213 5.01758 42.0058C6.39923 43.5069 8.30068 44.6503 10.497 45.2467C10.5112 45.2504 10.5245 45.2554 10.5387 45.2591C10.6729 45.2955 10.8094 45.327 10.9454 45.359C11.924 45.5935 12.9522 45.7199 14.0252 45.7199C14.2015 45.7199 14.3714 45.7025 14.5449 45.6956C14.5605 45.6949 14.5761 45.6939 14.5916 45.6933C15.3253 45.6624 16.0374 45.5761 16.7266 45.4242C19.2418 44.8982 21.4139 43.6594 22.9485 41.9853C22.9503 41.9836 22.9522 41.9825 22.954 41.9813C23.0602 41.881 23.156 41.7649 23.2544 41.6524C23.3033 41.5966 23.3575 41.5468 23.4041 41.4881L35.7296 26.1065L37.0811 24.3482C38.1756 23.0511 39.8494 21.2305 42.9951 21.2815C47.0132 21.3472 50.1273 25.4184 50.126 30.1804C50.1242 35.3715 47.4666 38.9961 43.0853 38.9961C40.2336 38.9961 37.8747 37.4538 36.569 34.9499C35.8683 33.6062 35.4663 31.9896 35.4663 30.1755C35.4663 30.1341 35.4704 30.0951 35.4704 30.0545L30.3972 36.5622C30.8802 37.9255 31.5224 39.172 32.3 40.278C34.6782 43.6589 38.3422 45.7199 42.7386 45.7199C50.5972 45.7199 56.1385 39.154 56.1385 30.1998C56.1385 21.2456 50.5972 14.6787 42.7386 14.6787Z" fill="white"/>
</g>
<defs>
<clipPath id="clip0_4_100">
<rect width="196.564" height="45.9406" fill="white" transform="translate(0.625305 0.841553)"/>
</clipPath>
</defs>
</svg>
